solid Kessler chess set
facet normal -1.6581971808860332e-17 -1.0 4.0718821456122e-18
  outer loop
    vertex 94.99999999999999 5.639932965095795e-15 34.999999999999986
    vertex 81.66666666666669 5.639932965095795e-15 32.499999999999986
    vertex 94.99999999999999 5.639932965095795e-15 29.999999999999986
  endloop
endfacet
facet normal -1.6581971808860332e-17 -1.0 4.0718821456122e-18
  outer loop
    vertex 81.66666666666669 5.639932965095795e-15 32.499999999999986
    vertex 94.99999999999999 5.639932965095795e-15 34.999999999999986
    vertex 84.16666666666667 5.639932965095795e-15 34.999999999999986
  endloop
endfacet
facet normal -1.6581971808860332e-17 -1.0 4.0718821456122e-18
  outer loop
    vertex 94.99999999999999 4.91733627415026e-15 19.999999999999986
    vertex 75.00000000000001 5.639932965095795e-15 7.500000000000009
    vertex 94.99999999999999 5.639932965095795e-15 7.500000000000009
  endloop
endfacet
facet normal -1.6581971808860332e-17 -1.0 4.0718821456122e-18
  outer loop
    vertex 75.00000000000001 5.639932965095795e-15 7.500000000000009
    vertex 94.99999999999999 4.91733627415026e-15 19.999999999999986
    vertex 75.00000000000001 5.639932965095795e-15 34.999999999999986
  endloop
endfacet
facet normal -1.6581971808860332e-17 -1.0 4.0718821456122e-18
  outer loop
    vertex 75.00000000000001 5.639932965095795e-15 34.999999999999986
    vertex 94.99999999999999 4.91733627415026e-15 19.999999999999986
    vertex 89.99999999999999 4.1947395832047254e-15 24.999999999999986
  endloop
endfacet
facet normal -1.6581971808860332e-17 -1.0 4.0718821456122e-18
  outer loop
    vertex 75.00000000000001 5.639932965095795e-15 34.999999999999986
    vertex 89.99999999999999 4.1947395832047254e-15 24.999999999999986
    vertex 81.66666666666669 5.639932965095795e-15 32.499999999999986
  endloop
endfacet
facet normal -1.6581971808860332e-17 -1.0 4.0718821456122e-18
  outer loop
    vertex 81.66666666666669 5.639932965095795e-15 32.499999999999986
    vertex 89.99999999999999 4.1947395832047254e-15 24.999999999999986
    vertex 94.99999999999999 5.639932965095795e-15 29.999999999999986
  endloop
endfacet
facet normal -1.6581971808860332e-17 -1.0 4.0718821456122e-18
  outer loop
    vertex 75.00000000000001 5.639932965095795e-15 34.999999999999986
    vertex 81.66666666666669 5.639932965095795e-15 32.499999999999986
    vertex 79.16666666666669 5.639932965095795e-15 34.999999999999986
  endloop
endfacet
facet normal -0.0 1.0 -0.0
  outer loop
    vertex 75.0 20.000000000000004 5.000000000000002
    vertex 94.99999999999999 20.000000000000004 0.0
    vertex 75.0 20.000000000000004 0.0
  endloop
endfacet
facet normal -0.0 1.0 -0.0
  outer loop
    vertex 94.99999999999999 20.000000000000004 0.0
    vertex 75.0 20.000000000000004 5.000000000000002
    vertex 94.99999999999999 20.000000000000004 5.000000000000002
  endloop
endfacet
facet normal -1.0 0.0 0.0
  outer loop
    vertex 75.0 20.000000000000004 5.000000000000002
    vertex 75.0 0.0 0.0
    vertex 75.0 0.0 5.000000000000002
  endloop
endfacet
facet normal -1.0 0.0 0.0
  outer loop
    vertex 75.0 0.0 0.0
    vertex 75.0 20.000000000000004 5.000000000000002
    vertex 75.0 20.000000000000004 0.0
  endloop
endfacet
facet normal -0.0 1.0 -0.0
  outer loop
    vertex 77.5 17.500000000000007 7.500000000000009
    vertex 92.5 17.500000000000007 5.000000000000002
    vertex 77.5 17.500000000000007 5.000000000000002
  endloop
endfacet
facet normal -0.0 1.0 -0.0
  outer loop
    vertex 92.5 17.500000000000007 5.000000000000002
    vertex 77.5 17.500000000000007 7.500000000000009
    vertex 92.5 17.500000000000007 7.500000000000009
  endloop
endfacet
facet normal 0.7071067811865483 -0.0 0.7071067811865468
  outer loop
    vertex 81.66666666666669 19.999999999999996 32.499999999999986
    vertex 79.16666666666669 5.639932965095795e-15 34.999999999999986
    vertex 81.66666666666669 5.639932965095795e-15 32.499999999999986
  endloop
endfacet
facet normal 0.7071067811865483 -0.0 0.7071067811865468
  outer loop
    vertex 79.16666666666669 5.639932965095795e-15 34.999999999999986
    vertex 81.66666666666669 19.999999999999996 32.499999999999986
    vertex 79.16666666666669 19.999999999999996 34.999999999999986
  endloop
endfacet
facet normal -0.0 -0.0 1.0
  outer loop
    vertex 79.16666666666669 5.639932965095795e-15 34.999999999999986
    vertex 75.00000000000001 19.999999999999993 34.999999999999986
    vertex 75.00000000000001 5.639932965095795e-15 34.999999999999986
  endloop
endfacet
facet normal -0.0 -0.0 1.0
  outer loop
    vertex 75.00000000000001 19.999999999999993 34.999999999999986
    vertex 79.16666666666669 5.639932965095795e-15 34.999999999999986
    vertex 79.16666666666669 19.999999999999996 34.999999999999986
  endloop
endfacet
facet normal 0.7071067811865474 7.9137566456596e-18 -0.7071067811865477
  outer loop
    vertex 94.99999999999999 19.999999999999975 29.999999999999986
    vertex 89.99999999999999 4.1947395832047254e-15 24.999999999999986
    vertex 89.99999999999999 19.99999999999997 24.999999999999986
  endloop
endfacet
facet normal 0.7071067811865474 7.9137566456596e-18 -0.7071067811865477
  outer loop
    vertex 89.99999999999999 4.1947395832047254e-15 24.999999999999986
    vertex 94.99999999999999 19.999999999999975 29.999999999999986
    vertex 94.99999999999999 5.639932965095795e-15 29.999999999999986
  endloop
endfacet
facet normal -0.0 -0.0 1.0
  outer loop
    vertex 75.0 0.0 5.000000000000002
    vertex 77.5 2.500000000000001 5.000000000000002
    vertex 75.0 20.000000000000004 5.000000000000002
  endloop
endfacet
facet normal -0.0 -0.0 1.0
  outer loop
    vertex 77.5 2.500000000000001 5.000000000000002
    vertex 75.0 0.0 5.000000000000002
    vertex 94.99999999999999 0.0 5.000000000000002
  endloop
endfacet
facet normal -0.0 -0.0 1.0
  outer loop
    vertex 77.5 2.500000000000001 5.000000000000002
    vertex 94.99999999999999 0.0 5.000000000000002
    vertex 92.5 2.500000000000001 5.000000000000002
  endloop
endfacet
facet normal -0.0 -0.0 1.0
  outer loop
    vertex 92.5 2.500000000000001 5.000000000000002
    vertex 94.99999999999999 0.0 5.000000000000002
    vertex 92.5 17.500000000000007 5.000000000000002
  endloop
endfacet
facet normal -0.0 -0.0 1.0
  outer loop
    vertex 75.0 20.000000000000004 5.000000000000002
    vertex 77.5 17.500000000000007 5.000000000000002
    vertex 94.99999999999999 20.000000000000004 5.000000000000002
  endloop
endfacet
facet normal -0.0 -0.0 1.0
  outer loop
    vertex 77.5 17.500000000000007 5.000000000000002
    vertex 75.0 20.000000000000004 5.000000000000002
    vertex 77.5 2.500000000000001 5.000000000000002
  endloop
endfacet
facet normal -0.0 -0.0 1.0
  outer loop
    vertex 94.99999999999999 20.000000000000004 5.000000000000002
    vertex 77.5 17.500000000000007 5.000000000000002
    vertex 92.5 17.500000000000007 5.000000000000002
  endloop
endfacet
facet normal -0.0 -0.0 1.0
  outer loop
    vertex 94.99999999999999 20.000000000000004 5.000000000000002
    vertex 92.5 17.500000000000007 5.000000000000002
    vertex 94.99999999999999 0.0 5.000000000000002
  endloop
endfacet
facet normal 0.0 -1.0 0.0
  outer loop
    vertex 92.5 2.500000000000001 7.500000000000009
    vertex 77.5 2.500000000000001 5.000000000000002
    vertex 92.5 2.500000000000001 5.000000000000002
  endloop
endfacet
facet normal 0.0 -1.0 0.0
  outer loop
    vertex 77.5 2.500000000000001 5.000000000000002
    vertex 92.5 2.500000000000001 7.500000000000009
    vertex 77.5 2.500000000000001 7.500000000000009
  endloop
endfacet
facet normal -0.7071067811865483 0.0 0.7071067811865468
  outer loop
    vertex 84.16666666666667 19.999999999999996 34.999999999999986
    vertex 81.66666666666669 5.639932965095795e-15 32.499999999999986
    vertex 84.16666666666667 5.639932965095795e-15 34.999999999999986
  endloop
endfacet
facet normal -0.7071067811865483 0.0 0.7071067811865468
  outer loop
    vertex 81.66666666666669 5.639932965095795e-15 32.499999999999986
    vertex 84.16666666666667 19.999999999999996 34.999999999999986
    vertex 81.66666666666669 19.999999999999996 32.499999999999986
  endloop
endfacet
facet normal 1.0 -0.0 -0.0
  outer loop
    vertex 94.99999999999999 19.999999999999975 29.999999999999986
    vertex 94.99999999999999 5.639932965095795e-15 34.999999999999986
    vertex 94.99999999999999 5.639932965095795e-15 29.999999999999986
  endloop
endfacet
facet normal 1.0 -0.0 -0.0
  outer loop
    vertex 94.99999999999999 5.639932965095795e-15 34.999999999999986
    vertex 94.99999999999999 19.999999999999975 29.999999999999986
    vertex 94.99999999999999 19.999999999999993 34.999999999999986
  endloop
endfacet
facet normal 0.7071067811865474 2.1086483614299887e-32 0.7071067811865477
  outer loop
    vertex 94.99999999999999 4.91733627415026e-15 19.999999999999986
    vertex 89.99999999999999 19.99999999999997 24.999999999999986
    vertex 89.99999999999999 4.1947395832047254e-15 24.999999999999986
  endloop
endfacet
facet normal 0.7071067811865474 2.1086483614299887e-32 0.7071067811865477
  outer loop
    vertex 89.99999999999999 19.99999999999997 24.999999999999986
    vertex 94.99999999999999 4.91733627415026e-15 19.999999999999986
    vertex 94.99999999999999 19.99999999999997 19.999999999999986
  endloop
endfacet
facet normal 6.119356919773349e-16 1.0 -1.198678497271468e-16
  outer loop
    vertex 75.00000000000001 19.999999999999993 34.999999999999986
    vertex 94.99999999999999 19.999999999999993 7.500000000000009
    vertex 75.00000000000001 19.999999999999993 7.500000000000009
  endloop
endfacet
facet normal 6.119356919773349e-16 1.0 -1.198678497271468e-16
  outer loop
    vertex 94.99999999999999 19.999999999999993 7.500000000000009
    vertex 75.00000000000001 19.999999999999993 34.999999999999986
    vertex 94.99999999999999 19.99999999999997 19.999999999999986
  endloop
endfacet
facet normal 6.119356919773349e-16 1.0 -1.198678497271468e-16
  outer loop
    vertex 94.99999999999999 19.99999999999997 19.999999999999986
    vertex 75.00000000000001 19.999999999999993 34.999999999999986
    vertex 89.99999999999999 19.99999999999997 24.999999999999986
  endloop
endfacet
facet normal 6.119356919773349e-16 1.0 -1.198678497271468e-16
  outer loop
    vertex 89.99999999999999 19.99999999999997 24.999999999999986
    vertex 75.00000000000001 19.999999999999993 34.999999999999986
    vertex 81.66666666666669 19.999999999999996 32.499999999999986
  endloop
endfacet
facet normal 6.119356919773349e-16 1.0 -1.198678497271468e-16
  outer loop
    vertex 89.99999999999999 19.99999999999997 24.999999999999986
    vertex 81.66666666666669 19.999999999999996 32.499999999999986
    vertex 94.99999999999999 19.999999999999975 29.999999999999986
  endloop
endfacet
facet normal 6.119356919773349e-16 1.0 -1.198678497271468e-16
  outer loop
    vertex 81.66666666666669 19.999999999999996 32.499999999999986
    vertex 75.00000000000001 19.999999999999993 34.999999999999986
    vertex 79.16666666666669 19.999999999999996 34.999999999999986
  endloop
endfacet
facet normal 6.119356919773349e-16 1.0 -1.198678497271468e-16
  outer loop
    vertex 81.66666666666669 19.999999999999996 32.499999999999986
    vertex 94.99999999999999 19.999999999999993 34.999999999999986
    vertex 94.99999999999999 19.999999999999975 29.999999999999986
  endloop
endfacet
facet normal 6.119356919773349e-16 1.0 -1.198678497271468e-16
  outer loop
    vertex 94.99999999999999 19.999999999999993 34.999999999999986
    vertex 81.66666666666669 19.999999999999996 32.499999999999986
    vertex 84.16666666666667 19.999999999999996 34.999999999999986
  endloop
endfacet
facet normal 1.0 -0.0 -0.0
  outer loop
    vertex 94.99999999999999 20.000000000000004 0.0
    vertex 94.99999999999999 0.0 5.000000000000002
    vertex 94.99999999999999 0.0 0.0
  endloop
endfacet
facet normal 1.0 -0.0 -0.0
  outer loop
    vertex 94.99999999999999 0.0 5.000000000000002
    vertex 94.99999999999999 20.000000000000004 0.0
    vertex 94.99999999999999 20.000000000000004 5.000000000000002
  endloop
endfacet
facet normal 0.0 -1.0 0.0
  outer loop
    vertex 94.99999999999999 0.0 5.000000000000002
    vertex 75.0 0.0 0.0
    vertex 94.99999999999999 0.0 0.0
  endloop
endfacet
facet normal 0.0 -1.0 0.0
  outer loop
    vertex 75.0 0.0 0.0
    vertex 94.99999999999999 0.0 5.000000000000002
    vertex 75.0 0.0 5.000000000000002
  endloop
endfacet
facet normal -0.0 -0.0 1.0
  outer loop
    vertex 94.99999999999999 5.639932965095795e-15 34.999999999999986
    vertex 84.16666666666667 19.999999999999996 34.999999999999986
    vertex 84.16666666666667 5.639932965095795e-15 34.999999999999986
  endloop
endfacet
facet normal -0.0 -0.0 1.0
  outer loop
    vertex 84.16666666666667 19.999999999999996 34.999999999999986
    vertex 94.99999999999999 5.639932965095795e-15 34.999999999999986
    vertex 94.99999999999999 19.999999999999993 34.999999999999986
  endloop
endfacet
facet normal 0.0 0.0 -1.0
  outer loop
    vertex 75.00000000000001 19.999999999999993 7.500000000000009
    vertex 77.5 17.500000000000007 7.500000000000009
    vertex 75.00000000000001 5.639932965095795e-15 7.500000000000009
  endloop
endfacet
facet normal 0.0 0.0 -1.0
  outer loop
    vertex 77.5 17.500000000000007 7.500000000000009
    vertex 75.00000000000001 19.999999999999993 7.500000000000009
    vertex 94.99999999999999 19.999999999999993 7.500000000000009
  endloop
endfacet
facet normal 0.0 0.0 -1.0
  outer loop
    vertex 77.5 17.500000000000007 7.500000000000009
    vertex 94.99999999999999 19.999999999999993 7.500000000000009
    vertex 92.5 17.500000000000007 7.500000000000009
  endloop
endfacet
facet normal 0.0 0.0 -1.0
  outer loop
    vertex 92.5 17.500000000000007 7.500000000000009
    vertex 94.99999999999999 19.999999999999993 7.500000000000009
    vertex 92.5 2.500000000000001 7.500000000000009
  endloop
endfacet
facet normal 0.0 0.0 -1.0
  outer loop
    vertex 75.00000000000001 5.639932965095795e-15 7.500000000000009
    vertex 77.5 2.500000000000001 7.500000000000009
    vertex 94.99999999999999 5.639932965095795e-15 7.500000000000009
  endloop
endfacet
facet normal 0.0 0.0 -1.0
  outer loop
    vertex 77.5 2.500000000000001 7.500000000000009
    vertex 75.00000000000001 5.639932965095795e-15 7.500000000000009
    vertex 77.5 17.500000000000007 7.500000000000009
  endloop
endfacet
facet normal 0.0 0.0 -1.0
  outer loop
    vertex 94.99999999999999 5.639932965095795e-15 7.500000000000009
    vertex 77.5 2.500000000000001 7.500000000000009
    vertex 92.5 2.500000000000001 7.500000000000009
  endloop
endfacet
facet normal 0.0 0.0 -1.0
  outer loop
    vertex 94.99999999999999 5.639932965095795e-15 7.500000000000009
    vertex 92.5 2.500000000000001 7.500000000000009
    vertex 94.99999999999999 19.999999999999993 7.500000000000009
  endloop
endfacet
facet normal -1.0 0.0 0.0
  outer loop
    vertex 75.00000000000001 19.999999999999993 34.999999999999986
    vertex 75.00000000000001 5.639932965095795e-15 7.500000000000009
    vertex 75.00000000000001 5.639932965095795e-15 34.999999999999986
  endloop
endfacet
facet normal -1.0 0.0 0.0
  outer loop
    vertex 75.00000000000001 5.639932965095795e-15 7.500000000000009
    vertex 75.00000000000001 19.999999999999993 34.999999999999986
    vertex 75.00000000000001 19.999999999999993 7.500000000000009
  endloop
endfacet
facet normal 0.0 0.0 -1.0
  outer loop
    vertex 94.99999999999999 20.000000000000004 0.0
    vertex 75.0 0.0 0.0
    vertex 75.0 20.000000000000004 0.0
  endloop
endfacet
facet normal 0.0 0.0 -1.0
  outer loop
    vertex 75.0 0.0 0.0
    vertex 94.99999999999999 20.000000000000004 0.0
    vertex 94.99999999999999 0.0 0.0
  endloop
endfacet
facet normal 1.0 -0.0 -0.0
  outer loop
    vertex 94.99999999999999 5.639932965095795e-15 7.500000000000009
    vertex 94.99999999999999 19.99999999999997 19.999999999999986
    vertex 94.99999999999999 4.91733627415026e-15 19.999999999999986
  endloop
endfacet
facet normal 1.0 -0.0 -0.0
  outer loop
    vertex 94.99999999999999 19.99999999999997 19.999999999999986
    vertex 94.99999999999999 5.639932965095795e-15 7.500000000000009
    vertex 94.99999999999999 19.999999999999993 7.500000000000009
  endloop
endfacet
facet normal 1.0 -0.0 -0.0
  outer loop
    vertex 92.5 17.500000000000007 5.000000000000002
    vertex 92.5 2.500000000000001 7.500000000000009
    vertex 92.5 2.500000000000001 5.000000000000002
  endloop
endfacet
facet normal 1.0 -0.0 -0.0
  outer loop
    vertex 92.5 2.500000000000001 7.500000000000009
    vertex 92.5 17.500000000000007 5.000000000000002
    vertex 92.5 17.500000000000007 7.500000000000009
  endloop
endfacet
facet normal -1.0 0.0 0.0
  outer loop
    vertex 77.5 17.500000000000007 7.500000000000009
    vertex 77.5 2.500000000000001 5.000000000000002
    vertex 77.5 2.500000000000001 7.500000000000009
  endloop
endfacet
facet normal -1.0 0.0 0.0
  outer loop
    vertex 77.5 2.500000000000001 5.000000000000002
    vertex 77.5 17.500000000000007 7.500000000000009
    vertex 77.5 17.500000000000007 5.000000000000002
  endloop
endfacet
endsolid Kessler chess set
