solid Kessler chess set
facet normal 0.0 -1.0 0.0
  outer loop
    vertex 120.0 0.0 5.0
    vertex 99.99999999999999 0.0 -6.261583435191781e-31
    vertex 120.0 0.0 -6.261583435191781e-31
  endloop
endfacet
facet normal 0.0 -1.0 0.0
  outer loop
    vertex 99.99999999999999 0.0 -6.261583435191781e-31
    vertex 120.0 0.0 5.0
    vertex 99.99999999999999 0.0 5.0
  endloop
endfacet
facet normal -0.0 -0.0 1.0
  outer loop
    vertex 104.20000000000002 5.639932965095795e-15 34.99999999999998
    vertex 100.00000000000001 6.666666666666673 34.99999999999998
    vertex 100.00000000000001 5.639932965095795e-15 34.99999999999998
  endloop
endfacet
facet normal -0.0 -0.0 1.0
  outer loop
    vertex 100.00000000000001 6.666666666666673 34.99999999999998
    vertex 104.20000000000002 5.639932965095795e-15 34.99999999999998
    vertex 104.20000000000002 6.6666666666666785 34.99999999999998
  endloop
endfacet
facet normal -0.0 1.0 -0.0
  outer loop
    vertex 102.50000000000001 17.49999999999999 7.5
    vertex 117.49999999999999 17.49999999999999 5.0
    vertex 102.50000000000001 17.49999999999999 5.0
  endloop
endfacet
facet normal -0.0 1.0 -0.0
  outer loop
    vertex 117.49999999999999 17.49999999999999 5.0
    vertex 102.50000000000001 17.49999999999999 7.5
    vertex 117.49999999999999 17.49999999999999 7.5
  endloop
endfacet
facet normal 1.0 -0.0 -0.0
  outer loop
    vertex 117.49999999999999 17.49999999999999 5.0
    vertex 117.49999999999999 2.499999999999999 7.5
    vertex 117.49999999999999 2.499999999999999 5.0
  endloop
endfacet
facet normal 1.0 -0.0 -0.0
  outer loop
    vertex 117.49999999999999 2.499999999999999 7.5
    vertex 117.49999999999999 17.49999999999999 5.0
    vertex 117.49999999999999 17.49999999999999 7.5
  endloop
endfacet
facet normal -1.0 0.0 0.0
  outer loop
    vertex 100.00000000000001 19.999999999999986 34.99999999999998
    vertex 100.00000000000001 13.333333333333318 24.999999999999982
    vertex 100.00000000000001 13.333333333333318 34.99999999999998
  endloop
endfacet
facet normal -1.0 0.0 0.0
  outer loop
    vertex 100.00000000000001 6.666666666666673 34.99999999999998
    vertex 100.00000000000001 5.639932965095795e-15 7.5
    vertex 100.00000000000001 5.639932965095795e-15 34.99999999999998
  endloop
endfacet
facet normal -1.0 0.0 0.0
  outer loop
    vertex 100.00000000000001 5.639932965095795e-15 7.5
    vertex 100.00000000000001 6.666666666666673 34.99999999999998
    vertex 100.00000000000001 6.666666666666673 24.999999999999982
  endloop
endfacet
facet normal -1.0 0.0 0.0
  outer loop
    vertex 100.00000000000001 5.639932965095795e-15 7.5
    vertex 100.00000000000001 6.666666666666673 24.999999999999982
    vertex 100.00000000000001 19.999999999999986 7.5
  endloop
endfacet
facet normal -1.0 0.0 0.0
  outer loop
    vertex 100.00000000000001 19.999999999999986 7.5
    vertex 100.00000000000001 6.666666666666673 24.999999999999982
    vertex 100.00000000000001 13.333333333333318 24.999999999999982
  endloop
endfacet
facet normal -1.0 0.0 0.0
  outer loop
    vertex 100.00000000000001 19.999999999999986 7.5
    vertex 100.00000000000001 13.333333333333318 24.999999999999982
    vertex 100.00000000000001 19.999999999999986 34.99999999999998
  endloop
endfacet
facet normal 0.0 -1.0 0.0
  outer loop
    vertex 117.49999999999999 2.499999999999999 7.5
    vertex 102.50000000000001 2.499999999999999 5.0
    vertex 117.49999999999999 2.499999999999999 5.0
  endloop
endfacet
facet normal 0.0 -1.0 0.0
  outer loop
    vertex 102.50000000000001 2.499999999999999 5.0
    vertex 117.49999999999999 2.499999999999999 7.5
    vertex 102.50000000000001 2.499999999999999 7.5
  endloop
endfacet
facet normal -0.0 1.0 -0.0
  outer loop
    vertex 99.99999999999999 19.999999999999996 5.0
    vertex 120.0 19.999999999999996 -6.261583435191781e-31
    vertex 99.99999999999999 19.999999999999996 -6.261583435191781e-31
  endloop
endfacet
facet normal -0.0 1.0 -0.0
  outer loop
    vertex 120.0 19.999999999999996 -6.261583435191781e-31
    vertex 99.99999999999999 19.999999999999996 5.0
    vertex 120.0 19.999999999999996 5.0
  endloop
endfacet
facet normal 1.0 -0.0 -0.0
  outer loop
    vertex 120.0 19.999999999999986 7.5
    vertex 120.0 5.639932965095795e-15 24.999999999999986
    vertex 120.0 5.639932965095795e-15 7.5
  endloop
endfacet
facet normal 1.0 -0.0 -0.0
  outer loop
    vertex 120.0 5.639932965095795e-15 24.999999999999986
    vertex 120.0 19.999999999999986 7.5
    vertex 120.0 6.666666666666673 24.999999999999982
  endloop
endfacet
facet normal 1.0 -0.0 -0.0
  outer loop
    vertex 120.0 6.666666666666673 24.999999999999982
    vertex 120.0 19.999999999999986 7.5
    vertex 120.0 13.333333333333318 24.999999999999982
  endloop
endfacet
facet normal 1.0 -0.0 -0.0
  outer loop
    vertex 120.0 13.333333333333318 24.999999999999982
    vertex 120.0 19.999999999999986 7.5
    vertex 120.0 19.999999999999986 24.999999999999986
  endloop
endfacet
facet normal 0.0 0.0 -1.0
  outer loop
    vertex 120.0 19.999999999999996 -6.261583435191781e-31
    vertex 99.99999999999999 0.0 -6.261583435191781e-31
    vertex 99.99999999999999 19.999999999999996 -6.261583435191781e-31
  endloop
endfacet
facet normal 0.0 0.0 -1.0
  outer loop
    vertex 99.99999999999999 0.0 -6.261583435191781e-31
    vertex 120.0 19.999999999999996 -6.261583435191781e-31
    vertex 120.0 0.0 -6.261583435191781e-31
  endloop
endfacet
facet normal -1.0 0.0 0.0
  outer loop
    vertex 102.50000000000001 17.49999999999999 7.5
    vertex 102.50000000000001 2.499999999999999 5.0
    vertex 102.50000000000001 2.499999999999999 7.5
  endloop
endfacet
facet normal -1.0 0.0 0.0
  outer loop
    vertex 102.50000000000001 2.499999999999999 5.0
    vertex 102.50000000000001 17.49999999999999 7.5
    vertex 102.50000000000001 17.49999999999999 5.0
  endloop
endfacet
facet normal -0.0 -0.0 1.0
  outer loop
    vertex 104.20000000000002 13.333333333333323 34.99999999999998
    vertex 100.00000000000001 19.999999999999986 34.99999999999998
    vertex 100.00000000000001 13.333333333333318 34.99999999999998
  endloop
endfacet
facet normal -0.0 -0.0 1.0
  outer loop
    vertex 100.00000000000001 19.999999999999986 34.99999999999998
    vertex 104.20000000000002 13.333333333333323 34.99999999999998
    vertex 104.20000000000002 19.999999999999986 34.99999999999998
  endloop
endfacet
facet normal -0.0 1.0 -0.0
  outer loop
    vertex 100.00000000000001 19.999999999999986 34.99999999999998
    vertex 120.0 19.999999999999986 7.5
    vertex 100.00000000000001 19.999999999999986 7.5
  endloop
endfacet
facet normal -0.0 1.0 -0.0
  outer loop
    vertex 120.0 19.999999999999986 7.5
    vertex 100.00000000000001 19.999999999999986 34.99999999999998
    vertex 120.0 19.999999999999986 24.999999999999986
  endloop
endfacet
facet normal -0.0 1.0 -0.0
  outer loop
    vertex 120.0 19.999999999999986 24.999999999999986
    vertex 100.00000000000001 19.999999999999986 34.99999999999998
    vertex 104.20000000000002 19.999999999999986 34.99999999999998
  endloop
endfacet
facet normal 1.0 -0.0 -0.0
  outer loop
    vertex 120.0 19.999999999999996 -6.261583435191781e-31
    vertex 120.0 0.0 5.0
    vertex 120.0 0.0 -6.261583435191781e-31
  endloop
endfacet
facet normal 1.0 -0.0 -0.0
  outer loop
    vertex 120.0 0.0 5.0
    vertex 120.0 19.999999999999996 -6.261583435191781e-31
    vertex 120.0 19.999999999999996 5.0
  endloop
endfacet
facet normal 0.0 -1.0 0.0
  outer loop
    vertex 120.0 5.639932965095795e-15 24.999999999999986
    vertex 100.00000000000001 5.639932965095795e-15 7.5
    vertex 120.0 5.639932965095795e-15 7.5
  endloop
endfacet
facet normal 0.0 -1.0 0.0
  outer loop
    vertex 100.00000000000001 5.639932965095795e-15 7.5
    vertex 120.0 5.639932965095795e-15 24.999999999999986
    vertex 100.00000000000001 5.639932965095795e-15 34.99999999999998
  endloop
endfacet
facet normal 0.0 -1.0 0.0
  outer loop
    vertex 100.00000000000001 5.639932965095795e-15 34.99999999999998
    vertex 120.0 5.639932965095795e-15 24.999999999999986
    vertex 104.20000000000002 5.639932965095795e-15 34.99999999999998
  endloop
endfacet
facet normal -0.0 -0.0 1.0
  outer loop
    vertex 120.0 6.666666666666673 24.999999999999982
    vertex 100.00000000000001 13.333333333333318 24.999999999999982
    vertex 100.00000000000001 6.666666666666673 24.999999999999982
  endloop
endfacet
facet normal -0.0 -0.0 1.0
  outer loop
    vertex 100.00000000000001 13.333333333333318 24.999999999999982
    vertex 120.0 6.666666666666673 24.999999999999982
    vertex 120.0 13.333333333333318 24.999999999999982
  endloop
endfacet
facet normal -0.0 -0.0 1.0
  outer loop
    vertex 99.99999999999999 0.0 5.0
    vertex 102.50000000000001 2.499999999999999 5.0
    vertex 99.99999999999999 19.999999999999996 5.0
  endloop
endfacet
facet normal -0.0 -0.0 1.0
  outer loop
    vertex 102.50000000000001 2.499999999999999 5.0
    vertex 99.99999999999999 0.0 5.0
    vertex 120.0 0.0 5.0
  endloop
endfacet
facet normal -0.0 -0.0 1.0
  outer loop
    vertex 102.50000000000001 2.499999999999999 5.0
    vertex 120.0 0.0 5.0
    vertex 117.49999999999999 2.499999999999999 5.0
  endloop
endfacet
facet normal -0.0 -0.0 1.0
  outer loop
    vertex 117.49999999999999 2.499999999999999 5.0
    vertex 120.0 0.0 5.0
    vertex 117.49999999999999 17.49999999999999 5.0
  endloop
endfacet
facet normal -0.0 -0.0 1.0
  outer loop
    vertex 99.99999999999999 19.999999999999996 5.0
    vertex 102.50000000000001 17.49999999999999 5.0
    vertex 120.0 19.999999999999996 5.0
  endloop
endfacet
facet normal -0.0 -0.0 1.0
  outer loop
    vertex 102.50000000000001 17.49999999999999 5.0
    vertex 99.99999999999999 19.999999999999996 5.0
    vertex 102.50000000000001 2.499999999999999 5.0
  endloop
endfacet
facet normal -0.0 -0.0 1.0
  outer loop
    vertex 120.0 19.999999999999996 5.0
    vertex 102.50000000000001 17.49999999999999 5.0
    vertex 117.49999999999999 17.49999999999999 5.0
  endloop
endfacet
facet normal -0.0 -0.0 1.0
  outer loop
    vertex 120.0 19.999999999999996 5.0
    vertex 117.49999999999999 17.49999999999999 5.0
    vertex 120.0 0.0 5.0
  endloop
endfacet
facet normal -1.0 0.0 0.0
  outer loop
    vertex 99.99999999999999 19.999999999999996 5.0
    vertex 99.99999999999999 0.0 -6.261583435191781e-31
    vertex 99.99999999999999 0.0 5.0
  endloop
endfacet
facet normal -1.0 0.0 0.0
  outer loop
    vertex 99.99999999999999 0.0 -6.261583435191781e-31
    vertex 99.99999999999999 19.999999999999996 5.0
    vertex 99.99999999999999 19.999999999999996 -6.261583435191781e-31
  endloop
endfacet
facet normal 0.0 0.0 -1.0
  outer loop
    vertex 100.00000000000001 19.999999999999986 7.5
    vertex 102.50000000000001 17.49999999999999 7.5
    vertex 100.00000000000001 5.639932965095795e-15 7.5
  endloop
endfacet
facet normal 0.0 0.0 -1.0
  outer loop
    vertex 102.50000000000001 17.49999999999999 7.5
    vertex 100.00000000000001 19.999999999999986 7.5
    vertex 120.0 19.999999999999986 7.5
  endloop
endfacet
facet normal 0.0 0.0 -1.0
  outer loop
    vertex 102.50000000000001 17.49999999999999 7.5
    vertex 120.0 19.999999999999986 7.5
    vertex 117.49999999999999 17.49999999999999 7.5
  endloop
endfacet
facet normal 0.0 0.0 -1.0
  outer loop
    vertex 117.49999999999999 17.49999999999999 7.5
    vertex 120.0 19.999999999999986 7.5
    vertex 117.49999999999999 2.499999999999999 7.5
  endloop
endfacet
facet normal 0.0 0.0 -1.0
  outer loop
    vertex 100.00000000000001 5.639932965095795e-15 7.5
    vertex 102.50000000000001 2.499999999999999 7.5
    vertex 120.0 5.639932965095795e-15 7.5
  endloop
endfacet
facet normal 0.0 0.0 -1.0
  outer loop
    vertex 102.50000000000001 2.499999999999999 7.5
    vertex 100.00000000000001 5.639932965095795e-15 7.5
    vertex 102.50000000000001 17.49999999999999 7.5
  endloop
endfacet
facet normal 0.0 0.0 -1.0
  outer loop
    vertex 120.0 5.639932965095795e-15 7.5
    vertex 102.50000000000001 2.499999999999999 7.5
    vertex 117.49999999999999 2.499999999999999 7.5
  endloop
endfacet
facet normal 0.0 0.0 -1.0
  outer loop
    vertex 120.0 5.639932965095795e-15 7.5
    vertex 117.49999999999999 2.499999999999999 7.5
    vertex 120.0 19.999999999999986 7.5
  endloop
endfacet
facet normal 0.5347975933477911 -1.8476672575713703e-16 0.8449801974895098
  outer loop
    vertex 120.0 13.333333333333318 24.999999999999982
    vertex 104.20000000000002 19.999999999999986 34.99999999999998
    vertex 104.20000000000002 13.333333333333323 34.99999999999998
  endloop
endfacet
facet normal 0.5347975933477911 -1.8476672575713703e-16 0.8449801974895098
  outer loop
    vertex 104.20000000000002 19.999999999999986 34.99999999999998
    vertex 120.0 13.333333333333318 24.999999999999982
    vertex 120.0 19.999999999999986 24.999999999999986
  endloop
endfacet
facet normal 0.534797593347791 1.9823368827587817e-16 0.8449801974895098
  outer loop
    vertex 120.0 5.639932965095795e-15 24.999999999999986
    vertex 104.20000000000002 6.6666666666666785 34.99999999999998
    vertex 104.20000000000002 5.639932965095795e-15 34.99999999999998
  endloop
endfacet
facet normal 0.534797593347791 1.9823368827587817e-16 0.8449801974895098
  outer loop
    vertex 104.20000000000002 6.6666666666666785 34.99999999999998
    vertex 120.0 5.639932965095795e-15 24.999999999999986
    vertex 120.0 6.666666666666673 24.999999999999982
  endloop
endfacet
facet normal -1.077002538944182e-16 1.0 -3.9681758009264057e-16
  outer loop
    vertex 100.00000000000001 6.666666666666673 34.99999999999998
    vertex 120.0 6.666666666666673 24.999999999999982
    vertex 100.00000000000001 6.666666666666673 24.999999999999982
  endloop
endfacet
facet normal -1.077002538944182e-16 1.0 -3.9681758009264057e-16
  outer loop
    vertex 120.0 6.666666666666673 24.999999999999982
    vertex 100.00000000000001 6.666666666666673 34.99999999999998
    vertex 104.20000000000002 6.6666666666666785 34.99999999999998
  endloop
endfacet
facet normal -5.1624915089886365e-17 -1.0 1.7801694858581518e-16
  outer loop
    vertex 104.20000000000002 13.333333333333323 34.99999999999998
    vertex 100.00000000000001 13.333333333333318 24.999999999999982
    vertex 120.0 13.333333333333318 24.999999999999982
  endloop
endfacet
facet normal -5.1624915089886365e-17 -1.0 1.7801694858581518e-16
  outer loop
    vertex 100.00000000000001 13.333333333333318 24.999999999999982
    vertex 104.20000000000002 13.333333333333323 34.99999999999998
    vertex 100.00000000000001 13.333333333333318 34.99999999999998
  endloop
endfacet
endsolid Kessler chess set
