solid Kessler chess set
facet normal 0.0 -1.0 0.0
  outer loop
    vertex 169.99999999999997 3.524958103184872e-15 40.000000000000014
    vertex 150.0 3.524958103184872e-15 37.499999999999986
    vertex 169.99999999999997 3.524958103184872e-15 37.499999999999986
  endloop
endfacet
facet normal 0.0 -1.0 0.0
  outer loop
    vertex 150.0 3.524958103184872e-15 37.499999999999986
    vertex 169.99999999999997 3.524958103184872e-15 40.000000000000014
    vertex 150.0 3.524958103184872e-15 40.000000000000014
  endloop
endfacet
facet normal 0.0 -1.0 0.0
  outer loop
    vertex 169.99999999999997 2.114974861910923e-15 45.00000000000008
    vertex 150.0 2.114974861910923e-15 42.50000000000005
    vertex 169.99999999999997 2.114974861910923e-15 42.50000000000005
  endloop
endfacet
facet normal 0.0 -1.0 0.0
  outer loop
    vertex 150.0 2.114974861910923e-15 42.50000000000005
    vertex 169.99999999999997 2.114974861910923e-15 45.00000000000008
    vertex 150.0 2.114974861910923e-15 45.00000000000008
  endloop
endfacet
facet normal 1.0 0.0 0.0
  outer loop
    vertex 169.99999999999997 19.99999999999998 37.499999999999986
    vertex 169.99999999999997 3.524958103184872e-15 40.000000000000014
    vertex 169.99999999999997 3.524958103184872e-15 37.499999999999986
  endloop
endfacet
facet normal 1.0 0.0 0.0
  outer loop
    vertex 169.99999999999997 3.524958103184872e-15 40.000000000000014
    vertex 169.99999999999997 19.99999999999998 37.499999999999986
    vertex 169.99999999999997 19.99999999999998 40.000000000000014
  endloop
endfacet
facet normal 1.0 -0.0 -0.0
  outer loop
    vertex 169.99999999999997 19.999999999999968 42.50000000000005
    vertex 169.99999999999997 2.114974861910923e-15 45.00000000000008
    vertex 169.99999999999997 2.114974861910923e-15 42.50000000000005
  endloop
endfacet
facet normal 1.0 -0.0 -0.0
  outer loop
    vertex 169.99999999999997 2.114974861910923e-15 45.00000000000008
    vertex 169.99999999999997 19.999999999999968 42.50000000000005
    vertex 169.99999999999997 19.999999999999968 45.000000000000064
  endloop
endfacet
facet normal -8.976286368236103e-18 6.539465055501951e-16 1.0
  outer loop
    vertex 150.0 2.114974861910923e-15 45.00000000000008
    vertex 152.5 2.500000000000016 45.00000000000008
    vertex 150.0 19.999999999999968 45.000000000000064
  endloop
endfacet
facet normal -8.976286368236103e-18 6.539465055501951e-16 1.0
  outer loop
    vertex 152.5 2.500000000000016 45.00000000000008
    vertex 150.0 2.114974861910923e-15 45.00000000000008
    vertex 169.99999999999997 2.114974861910923e-15 45.00000000000008
  endloop
endfacet
facet normal -8.976286368236103e-18 6.539465055501951e-16 1.0
  outer loop
    vertex 152.5 2.500000000000016 45.00000000000008
    vertex 169.99999999999997 2.114974861910923e-15 45.00000000000008
    vertex 167.49999999999997 2.500000000000016 45.00000000000008
  endloop
endfacet
facet normal -8.976286368236103e-18 6.539465055501951e-16 1.0
  outer loop
    vertex 167.49999999999997 2.500000000000016 45.00000000000008
    vertex 169.99999999999997 2.114974861910923e-15 45.00000000000008
    vertex 167.49999999999997 17.50000000000003 45.000000000000064
  endloop
endfacet
facet normal -8.976286368236103e-18 6.539465055501951e-16 1.0
  outer loop
    vertex 150.0 19.999999999999968 45.000000000000064
    vertex 152.5 17.50000000000003 45.000000000000064
    vertex 169.99999999999997 19.999999999999968 45.000000000000064
  endloop
endfacet
facet normal -8.976286368236103e-18 6.539465055501951e-16 1.0
  outer loop
    vertex 152.5 17.50000000000003 45.000000000000064
    vertex 150.0 19.999999999999968 45.000000000000064
    vertex 152.5 2.500000000000016 45.00000000000008
  endloop
endfacet
facet normal -8.976286368236103e-18 6.539465055501951e-16 1.0
  outer loop
    vertex 169.99999999999997 19.999999999999968 45.000000000000064
    vertex 152.5 17.50000000000003 45.000000000000064
    vertex 167.49999999999997 17.50000000000003 45.000000000000064
  endloop
endfacet
facet normal -8.976286368236103e-18 6.539465055501951e-16 1.0
  outer loop
    vertex 169.99999999999997 19.999999999999968 45.000000000000064
    vertex 167.49999999999997 17.50000000000003 45.000000000000064
    vertex 169.99999999999997 2.114974861910923e-15 45.00000000000008
  endloop
endfacet
facet normal 0.0 0.0 -1.0
  outer loop
    vertex 150.0 19.99999999999998 37.499999999999986
    vertex 152.5 17.499999999999986 37.499999999999986
    vertex 150.0 3.524958103184872e-15 37.499999999999986
  endloop
endfacet
facet normal 0.0 0.0 -1.0
  outer loop
    vertex 152.5 17.499999999999986 37.499999999999986
    vertex 150.0 19.99999999999998 37.499999999999986
    vertex 169.99999999999997 19.99999999999998 37.499999999999986
  endloop
endfacet
facet normal 0.0 0.0 -1.0
  outer loop
    vertex 152.5 17.499999999999986 37.499999999999986
    vertex 169.99999999999997 19.99999999999998 37.499999999999986
    vertex 167.49999999999997 17.499999999999986 37.499999999999986
  endloop
endfacet
facet normal 0.0 0.0 -1.0
  outer loop
    vertex 167.49999999999997 17.499999999999986 37.499999999999986
    vertex 169.99999999999997 19.99999999999998 37.499999999999986
    vertex 167.49999999999997 2.500000000000005 37.499999999999986
  endloop
endfacet
facet normal 0.0 0.0 -1.0
  outer loop
    vertex 150.0 3.524958103184872e-15 37.499999999999986
    vertex 152.5 2.500000000000005 37.499999999999986
    vertex 169.99999999999997 3.524958103184872e-15 37.499999999999986
  endloop
endfacet
facet normal 0.0 0.0 -1.0
  outer loop
    vertex 152.5 2.500000000000005 37.499999999999986
    vertex 150.0 3.524958103184872e-15 37.499999999999986
    vertex 152.5 17.499999999999986 37.499999999999986
  endloop
endfacet
facet normal 0.0 0.0 -1.0
  outer loop
    vertex 169.99999999999997 3.524958103184872e-15 37.499999999999986
    vertex 152.5 2.500000000000005 37.499999999999986
    vertex 167.49999999999997 2.500000000000005 37.499999999999986
  endloop
endfacet
facet normal 0.0 0.0 -1.0
  outer loop
    vertex 169.99999999999997 3.524958103184872e-15 37.499999999999986
    vertex 167.49999999999997 2.500000000000005 37.499999999999986
    vertex 169.99999999999997 19.99999999999998 37.499999999999986
  endloop
endfacet
facet normal -1.0 0.0 0.0
  outer loop
    vertex 152.5 17.499999999999986 42.50000000000005
    vertex 152.5 2.500000000000005 40.000000000000014
    vertex 152.5 2.500000000000005 42.50000000000005
  endloop
endfacet
facet normal -1.0 0.0 0.0
  outer loop
    vertex 152.5 2.500000000000005 40.000000000000014
    vertex 152.5 17.499999999999986 42.50000000000005
    vertex 152.5 17.499999999999986 40.000000000000014
  endloop
endfacet
facet normal 1.0 -0.0 -0.0
  outer loop
    vertex 167.49999999999997 17.499999999999986 40.000000000000014
    vertex 167.49999999999997 2.500000000000005 42.50000000000005
    vertex 167.49999999999997 2.500000000000005 40.000000000000014
  endloop
endfacet
facet normal 1.0 -0.0 -0.0
  outer loop
    vertex 167.49999999999997 2.500000000000005 42.50000000000005
    vertex 167.49999999999997 17.499999999999986 40.000000000000014
    vertex 167.49999999999997 17.499999999999986 42.50000000000005
  endloop
endfacet
facet normal 0.0 1.0 0.0
  outer loop
    vertex 150.0 19.99999999999998 40.000000000000014
    vertex 169.99999999999997 19.99999999999998 37.499999999999986
    vertex 150.0 19.99999999999998 37.499999999999986
  endloop
endfacet
facet normal 0.0 1.0 0.0
  outer loop
    vertex 169.99999999999997 19.99999999999998 37.499999999999986
    vertex 150.0 19.99999999999998 40.000000000000014
    vertex 169.99999999999997 19.99999999999998 40.000000000000014
  endloop
endfacet
facet normal -0.0 1.0 -0.0
  outer loop
    vertex 150.0 19.999999999999968 45.000000000000064
    vertex 169.99999999999997 19.999999999999968 42.50000000000005
    vertex 150.0 19.999999999999968 42.50000000000005
  endloop
endfacet
facet normal -0.0 1.0 -0.0
  outer loop
    vertex 169.99999999999997 19.999999999999968 42.50000000000005
    vertex 150.0 19.999999999999968 45.000000000000064
    vertex 169.99999999999997 19.999999999999968 45.000000000000064
  endloop
endfacet
facet normal -1.0 0.0 0.0
  outer loop
    vertex 150.0 19.99999999999998 40.000000000000014
    vertex 150.0 3.524958103184872e-15 37.499999999999986
    vertex 150.0 3.524958103184872e-15 40.000000000000014
  endloop
endfacet
facet normal -1.0 0.0 0.0
  outer loop
    vertex 150.0 3.524958103184872e-15 37.499999999999986
    vertex 150.0 19.99999999999998 40.000000000000014
    vertex 150.0 19.99999999999998 37.499999999999986
  endloop
endfacet
facet normal -0.0 -0.0 1.0
  outer loop
    vertex 150.0 3.524958103184872e-15 40.000000000000014
    vertex 152.5 2.500000000000005 40.000000000000014
    vertex 150.0 19.99999999999998 40.000000000000014
  endloop
endfacet
facet normal -0.0 -0.0 1.0
  outer loop
    vertex 152.5 2.500000000000005 40.000000000000014
    vertex 150.0 3.524958103184872e-15 40.000000000000014
    vertex 169.99999999999997 3.524958103184872e-15 40.000000000000014
  endloop
endfacet
facet normal -0.0 -0.0 1.0
  outer loop
    vertex 152.5 2.500000000000005 40.000000000000014
    vertex 169.99999999999997 3.524958103184872e-15 40.000000000000014
    vertex 167.49999999999997 2.500000000000005 40.000000000000014
  endloop
endfacet
facet normal -0.0 -0.0 1.0
  outer loop
    vertex 167.49999999999997 2.500000000000005 40.000000000000014
    vertex 169.99999999999997 3.524958103184872e-15 40.000000000000014
    vertex 167.49999999999997 17.499999999999986 40.000000000000014
  endloop
endfacet
facet normal -0.0 -0.0 1.0
  outer loop
    vertex 150.0 19.99999999999998 40.000000000000014
    vertex 152.5 17.499999999999986 40.000000000000014
    vertex 169.99999999999997 19.99999999999998 40.000000000000014
  endloop
endfacet
facet normal -0.0 -0.0 1.0
  outer loop
    vertex 152.5 17.499999999999986 40.000000000000014
    vertex 150.0 19.99999999999998 40.000000000000014
    vertex 152.5 2.500000000000005 40.000000000000014
  endloop
endfacet
facet normal -0.0 -0.0 1.0
  outer loop
    vertex 169.99999999999997 19.99999999999998 40.000000000000014
    vertex 152.5 17.499999999999986 40.000000000000014
    vertex 167.49999999999997 17.499999999999986 40.000000000000014
  endloop
endfacet
facet normal -0.0 -0.0 1.0
  outer loop
    vertex 169.99999999999997 19.99999999999998 40.000000000000014
    vertex 167.49999999999997 17.499999999999986 40.000000000000014
    vertex 169.99999999999997 3.524958103184872e-15 40.000000000000014
  endloop
endfacet
facet normal 0.0 -1.0 0.0
  outer loop
    vertex 167.49999999999997 2.500000000000016 47.50000000000008
    vertex 152.5 2.500000000000016 45.00000000000008
    vertex 167.49999999999997 2.500000000000016 45.00000000000008
  endloop
endfacet
facet normal 0.0 -1.0 0.0
  outer loop
    vertex 152.5 2.500000000000016 45.00000000000008
    vertex 167.49999999999997 2.500000000000016 47.50000000000008
    vertex 152.5 2.500000000000016 47.50000000000008
  endloop
endfacet
facet normal 1.0 -0.0 -0.0
  outer loop
    vertex 167.49999999999997 17.50000000000003 45.000000000000064
    vertex 167.49999999999997 2.500000000000016 47.50000000000008
    vertex 167.49999999999997 2.500000000000016 45.00000000000008
  endloop
endfacet
facet normal 1.0 -0.0 -0.0
  outer loop
    vertex 167.49999999999997 2.500000000000016 47.50000000000008
    vertex 167.49999999999997 17.50000000000003 45.000000000000064
    vertex 167.49999999999997 17.50000000000003 47.50000000000008
  endloop
endfacet
facet normal 0.0 0.0 -1.0
  outer loop
    vertex 150.0 19.999999999999968 42.50000000000005
    vertex 152.5 17.499999999999986 42.50000000000005
    vertex 150.0 2.114974861910923e-15 42.50000000000005
  endloop
endfacet
facet normal 0.0 0.0 -1.0
  outer loop
    vertex 152.5 17.499999999999986 42.50000000000005
    vertex 150.0 19.999999999999968 42.50000000000005
    vertex 169.99999999999997 19.999999999999968 42.50000000000005
  endloop
endfacet
facet normal 0.0 0.0 -1.0
  outer loop
    vertex 152.5 17.499999999999986 42.50000000000005
    vertex 169.99999999999997 19.999999999999968 42.50000000000005
    vertex 167.49999999999997 17.499999999999986 42.50000000000005
  endloop
endfacet
facet normal 0.0 0.0 -1.0
  outer loop
    vertex 167.49999999999997 17.499999999999986 42.50000000000005
    vertex 169.99999999999997 19.999999999999968 42.50000000000005
    vertex 167.49999999999997 2.500000000000005 42.50000000000005
  endloop
endfacet
facet normal 0.0 0.0 -1.0
  outer loop
    vertex 150.0 2.114974861910923e-15 42.50000000000005
    vertex 152.5 2.500000000000005 42.50000000000005
    vertex 169.99999999999997 2.114974861910923e-15 42.50000000000005
  endloop
endfacet
facet normal 0.0 0.0 -1.0
  outer loop
    vertex 152.5 2.500000000000005 42.50000000000005
    vertex 150.0 2.114974861910923e-15 42.50000000000005
    vertex 152.5 17.499999999999986 42.50000000000005
  endloop
endfacet
facet normal 0.0 0.0 -1.0
  outer loop
    vertex 169.99999999999997 2.114974861910923e-15 42.50000000000005
    vertex 152.5 2.500000000000005 42.50000000000005
    vertex 167.49999999999997 2.500000000000005 42.50000000000005
  endloop
endfacet
facet normal 0.0 0.0 -1.0
  outer loop
    vertex 169.99999999999997 2.114974861910923e-15 42.50000000000005
    vertex 167.49999999999997 2.500000000000005 42.50000000000005
    vertex 169.99999999999997 19.999999999999968 42.50000000000005
  endloop
endfacet
facet normal -0.0 1.0 -0.0
  outer loop
    vertex 152.5 17.50000000000003 47.50000000000008
    vertex 167.49999999999997 17.50000000000003 45.000000000000064
    vertex 152.5 17.50000000000003 45.000000000000064
  endloop
endfacet
facet normal -0.0 1.0 -0.0
  outer loop
    vertex 167.49999999999997 17.50000000000003 45.000000000000064
    vertex 152.5 17.50000000000003 47.50000000000008
    vertex 167.49999999999997 17.50000000000003 47.50000000000008
  endloop
endfacet
facet normal -1.0 0.0 0.0
  outer loop
    vertex 150.0 19.999999999999968 45.000000000000064
    vertex 150.0 2.114974861910923e-15 42.50000000000005
    vertex 150.0 2.114974861910923e-15 45.00000000000008
  endloop
endfacet
facet normal -1.0 0.0 0.0
  outer loop
    vertex 150.0 2.114974861910923e-15 42.50000000000005
    vertex 150.0 19.999999999999968 45.000000000000064
    vertex 150.0 19.999999999999968 42.50000000000005
  endloop
endfacet
facet normal -1.0 0.0 0.0
  outer loop
    vertex 152.5 17.50000000000003 47.50000000000008
    vertex 152.5 2.500000000000016 45.00000000000008
    vertex 152.5 2.500000000000016 47.50000000000008
  endloop
endfacet
facet normal -1.0 0.0 0.0
  outer loop
    vertex 152.5 2.500000000000016 45.00000000000008
    vertex 152.5 17.50000000000003 47.50000000000008
    vertex 152.5 17.50000000000003 45.000000000000064
  endloop
endfacet
facet normal -0.0 1.0 -0.0
  outer loop
    vertex 152.5 17.499999999999986 42.50000000000005
    vertex 167.49999999999997 17.499999999999986 40.000000000000014
    vertex 152.5 17.499999999999986 40.000000000000014
  endloop
endfacet
facet normal -0.0 1.0 -0.0
  outer loop
    vertex 167.49999999999997 17.499999999999986 40.000000000000014
    vertex 152.5 17.499999999999986 42.50000000000005
    vertex 167.49999999999997 17.499999999999986 42.50000000000005
  endloop
endfacet
facet normal -2.0020396678862733e-17 -0.44721359549995865 0.8944271909999155
  outer loop
    vertex 169.99999999999997 -7.049916206369738e-16 50.00000000000008
    vertex 159.99999999999997 9.999999999999986 55.00000000000008
    vertex 150.0 -3.5249581031848595e-16 50.00000000000008
  endloop
endfacet
facet normal 1.0 -0.0 -0.0
  outer loop
    vertex 169.99999999999997 19.999999999999964 47.500000000000064
    vertex 169.99999999999997 -7.049916206369738e-16 50.00000000000008
    vertex 169.99999999999997 -1.4099832412739487e-15 47.50000000000008
  endloop
endfacet
facet normal 1.0 -0.0 -0.0
  outer loop
    vertex 169.99999999999997 -7.049916206369738e-16 50.00000000000008
    vertex 169.99999999999997 19.999999999999964 47.500000000000064
    vertex 169.99999999999997 19.999999999999964 50.000000000000064
  endloop
endfacet
facet normal -8.812395257962211e-18 -1.0 3.524958103184874e-16
  outer loop
    vertex 169.99999999999997 -7.049916206369738e-16 50.00000000000008
    vertex 150.0 -1.4099832412739487e-15 47.50000000000008
    vertex 169.99999999999997 -1.4099832412739487e-15 47.50000000000008
  endloop
endfacet
facet normal -8.812395257962211e-18 -1.0 3.524958103184874e-16
  outer loop
    vertex 150.0 -1.4099832412739487e-15 47.50000000000008
    vertex 169.99999999999997 -7.049916206369738e-16 50.00000000000008
    vertex 150.0 -3.5249581031848595e-16 50.00000000000008
  endloop
endfacet
facet normal -0.0 1.0 -0.0
  outer loop
    vertex 150.0 19.999999999999964 50.000000000000064
    vertex 169.99999999999997 19.999999999999964 47.500000000000064
    vertex 150.0 19.999999999999964 47.500000000000064
  endloop
endfacet
facet normal -0.0 1.0 -0.0
  outer loop
    vertex 169.99999999999997 19.999999999999964 47.500000000000064
    vertex 150.0 19.999999999999964 50.000000000000064
    vertex 169.99999999999997 19.999999999999964 50.000000000000064
  endloop
endfacet
facet normal -0.0 0.44721359549995976 0.894427190999915
  outer loop
    vertex 169.99999999999997 19.999999999999964 50.000000000000064
    vertex 150.0 19.999999999999964 50.000000000000064
    vertex 159.99999999999997 9.999999999999986 55.00000000000008
  endloop
endfacet
facet normal -0.44721359549995915 5.105201153109986e-16 0.8944271909999153
  outer loop
    vertex 159.99999999999997 9.999999999999986 55.00000000000008
    vertex 150.0 19.999999999999964 50.000000000000064
    vertex 150.0 -3.5249581031848595e-16 50.00000000000008
  endloop
endfacet
facet normal 0.44721359549995915 5.005099169715671e-16 0.8944271909999153
  outer loop
    vertex 169.99999999999997 19.999999999999964 50.000000000000064
    vertex 159.99999999999997 9.999999999999986 55.00000000000008
    vertex 169.99999999999997 -7.049916206369738e-16 50.00000000000008
  endloop
endfacet
facet normal 0.0 -5.639932965095804e-16 -1.0
  outer loop
    vertex 150.0 19.999999999999964 47.500000000000064
    vertex 152.5 17.50000000000003 47.50000000000008
    vertex 150.0 -1.4099832412739487e-15 47.50000000000008
  endloop
endfacet
facet normal 0.0 -5.639932965095804e-16 -1.0
  outer loop
    vertex 152.5 17.50000000000003 47.50000000000008
    vertex 150.0 19.999999999999964 47.500000000000064
    vertex 169.99999999999997 19.999999999999964 47.500000000000064
  endloop
endfacet
facet normal 0.0 -5.639932965095804e-16 -1.0
  outer loop
    vertex 152.5 17.50000000000003 47.50000000000008
    vertex 169.99999999999997 19.999999999999964 47.500000000000064
    vertex 167.49999999999997 17.50000000000003 47.50000000000008
  endloop
endfacet
facet normal 0.0 -5.639932965095804e-16 -1.0
  outer loop
    vertex 167.49999999999997 17.50000000000003 47.50000000000008
    vertex 169.99999999999997 19.999999999999964 47.500000000000064
    vertex 167.49999999999997 2.500000000000016 47.50000000000008
  endloop
endfacet
facet normal 0.0 -5.639932965095804e-16 -1.0
  outer loop
    vertex 150.0 -1.4099832412739487e-15 47.50000000000008
    vertex 152.5 2.500000000000016 47.50000000000008
    vertex 169.99999999999997 -1.4099832412739487e-15 47.50000000000008
  endloop
endfacet
facet normal 0.0 -5.639932965095804e-16 -1.0
  outer loop
    vertex 152.5 2.500000000000016 47.50000000000008
    vertex 150.0 -1.4099832412739487e-15 47.50000000000008
    vertex 152.5 17.50000000000003 47.50000000000008
  endloop
endfacet
facet normal 0.0 -5.639932965095804e-16 -1.0
  outer loop
    vertex 169.99999999999997 -1.4099832412739487e-15 47.50000000000008
    vertex 152.5 2.500000000000016 47.50000000000008
    vertex 167.49999999999997 2.500000000000016 47.50000000000008
  endloop
endfacet
facet normal 0.0 -5.639932965095804e-16 -1.0
  outer loop
    vertex 169.99999999999997 -1.4099832412739487e-15 47.50000000000008
    vertex 167.49999999999997 2.500000000000016 47.50000000000008
    vertex 169.99999999999997 19.999999999999964 47.500000000000064
  endloop
endfacet
facet normal -1.0 0.0 0.0
  outer loop
    vertex 150.0 -3.5249581031848595e-16 50.00000000000008
    vertex 150.0 19.999999999999964 47.500000000000064
    vertex 150.0 -1.4099832412739487e-15 47.50000000000008
  endloop
endfacet
facet normal -1.0 0.0 0.0
  outer loop
    vertex 150.0 19.999999999999964 47.500000000000064
    vertex 150.0 -3.5249581031848595e-16 50.00000000000008
    vertex 150.0 19.999999999999964 50.000000000000064
  endloop
endfacet
facet normal -0.0 -1.0 -0.0
  outer loop
    vertex 169.99999999999997 0.0 5.0
    vertex 149.99999999999997 0.0 -1.5653958587979452e-31
    vertex 169.99999999999997 0.0 -1.5653958587979452e-31
  endloop
endfacet
facet normal -0.0 -1.0 -0.0
  outer loop
    vertex 149.99999999999997 0.0 -1.5653958587979452e-31
    vertex 169.99999999999997 0.0 5.0
    vertex 149.99999999999997 0.0 5.0
  endloop
endfacet
facet normal 1.0 0.0 0.0
  outer loop
    vertex 167.49999999999997 17.499999999999996 5.0
    vertex 167.49999999999997 2.5000000000000004 7.5
    vertex 167.49999999999997 2.5000000000000004 5.0
  endloop
endfacet
facet normal 1.0 0.0 0.0
  outer loop
    vertex 167.49999999999997 2.5000000000000004 7.5
    vertex 167.49999999999997 17.499999999999996 5.0
    vertex 167.49999999999997 17.499999999999996 7.5
  endloop
endfacet
facet normal 1.0 0.0 0.0
  outer loop
    vertex 169.99999999999997 19.999999999999996 -1.5653958587979452e-31
    vertex 169.99999999999997 0.0 5.0
    vertex 169.99999999999997 0.0 -1.5653958587979452e-31
  endloop
endfacet
facet normal 1.0 0.0 0.0
  outer loop
    vertex 169.99999999999997 0.0 5.0
    vertex 169.99999999999997 19.999999999999996 -1.5653958587979452e-31
    vertex 169.99999999999997 19.999999999999996 5.0
  endloop
endfacet
facet normal 0.0 1.0 0.0
  outer loop
    vertex 152.49999999999997 17.499999999999996 7.5
    vertex 167.49999999999997 17.499999999999996 5.0
    vertex 152.49999999999997 17.499999999999996 5.0
  endloop
endfacet
facet normal 0.0 1.0 0.0
  outer loop
    vertex 167.49999999999997 17.499999999999996 5.0
    vertex 152.49999999999997 17.499999999999996 7.5
    vertex 167.49999999999997 17.499999999999996 7.5
  endloop
endfacet
facet normal 0.0 -1.0 0.0
  outer loop
    vertex 167.49999999999997 2.5000000000000004 7.5
    vertex 152.49999999999997 2.5000000000000004 5.0
    vertex 167.49999999999997 2.5000000000000004 5.0
  endloop
endfacet
facet normal 0.0 -1.0 0.0
  outer loop
    vertex 152.49999999999997 2.5000000000000004 5.0
    vertex 167.49999999999997 2.5000000000000004 7.5
    vertex 152.49999999999997 2.5000000000000004 7.5
  endloop
endfacet
facet normal 1.0 -0.0 -0.0
  outer loop
    vertex 167.49999999999997 17.499999999999986 34.99999999999996
    vertex 167.49999999999997 2.500000000000005 37.499999999999986
    vertex 167.49999999999997 2.500000000000005 34.99999999999996
  endloop
endfacet
facet normal 1.0 -0.0 -0.0
  outer loop
    vertex 167.49999999999997 2.500000000000005 37.499999999999986
    vertex 167.49999999999997 17.499999999999986 34.99999999999996
    vertex 167.49999999999997 17.499999999999986 37.499999999999986
  endloop
endfacet
facet normal 1.0 0.0 0.0
  outer loop
    vertex 169.99999999999997 19.999999999999986 7.5
    vertex 169.99999999999997 4.93494134445882e-15 34.99999999999996
    vertex 169.99999999999997 4.93494134445882e-15 7.5
  endloop
endfacet
facet normal 1.0 0.0 0.0
  outer loop
    vertex 169.99999999999997 4.93494134445882e-15 34.99999999999996
    vertex 169.99999999999997 19.999999999999986 7.5
    vertex 169.99999999999997 19.999999999999986 34.99999999999996
  endloop
endfacet
facet normal 0.0 -1.0 0.0
  outer loop
    vertex 167.49999999999997 2.500000000000005 37.499999999999986
    vertex 152.5 2.500000000000005 34.99999999999996
    vertex 167.49999999999997 2.500000000000005 34.99999999999996
  endloop
endfacet
facet normal 0.0 -1.0 0.0
  outer loop
    vertex 152.5 2.500000000000005 34.99999999999996
    vertex 167.49999999999997 2.500000000000005 37.499999999999986
    vertex 152.5 2.500000000000005 37.499999999999986
  endloop
endfacet
facet normal 0.0 1.0 0.0
  outer loop
    vertex 150.0 19.999999999999986 34.99999999999996
    vertex 169.99999999999997 19.999999999999986 7.5
    vertex 150.0 19.999999999999986 7.5
  endloop
endfacet
facet normal 0.0 1.0 0.0
  outer loop
    vertex 169.99999999999997 19.999999999999986 7.5
    vertex 150.0 19.999999999999986 34.99999999999996
    vertex 169.99999999999997 19.999999999999986 34.99999999999996
  endloop
endfacet
facet normal -1.0 0.0 0.0
  outer loop
    vertex 149.99999999999997 19.999999999999996 5.0
    vertex 149.99999999999997 0.0 -1.5653958587979452e-31
    vertex 149.99999999999997 0.0 5.0
  endloop
endfacet
facet normal -1.0 0.0 0.0
  outer loop
    vertex 149.99999999999997 0.0 -1.5653958587979452e-31
    vertex 149.99999999999997 19.999999999999996 5.0
    vertex 149.99999999999997 19.999999999999996 -1.5653958587979452e-31
  endloop
endfacet
facet normal 0.0 0.0 1.0
  outer loop
    vertex 149.99999999999997 0.0 5.0
    vertex 152.49999999999997 2.5000000000000004 5.0
    vertex 149.99999999999997 19.999999999999996 5.0
  endloop
endfacet
facet normal 0.0 0.0 1.0
  outer loop
    vertex 152.49999999999997 2.5000000000000004 5.0
    vertex 149.99999999999997 0.0 5.0
    vertex 169.99999999999997 0.0 5.0
  endloop
endfacet
facet normal 0.0 0.0 1.0
  outer loop
    vertex 152.49999999999997 2.5000000000000004 5.0
    vertex 169.99999999999997 0.0 5.0
    vertex 167.49999999999997 2.5000000000000004 5.0
  endloop
endfacet
facet normal 0.0 0.0 1.0
  outer loop
    vertex 167.49999999999997 2.5000000000000004 5.0
    vertex 169.99999999999997 0.0 5.0
    vertex 167.49999999999997 17.499999999999996 5.0
  endloop
endfacet
facet normal 0.0 0.0 1.0
  outer loop
    vertex 149.99999999999997 19.999999999999996 5.0
    vertex 152.49999999999997 17.499999999999996 5.0
    vertex 169.99999999999997 19.999999999999996 5.0
  endloop
endfacet
facet normal 0.0 0.0 1.0
  outer loop
    vertex 152.49999999999997 17.499999999999996 5.0
    vertex 149.99999999999997 19.999999999999996 5.0
    vertex 152.49999999999997 2.5000000000000004 5.0
  endloop
endfacet
facet normal 0.0 0.0 1.0
  outer loop
    vertex 169.99999999999997 19.999999999999996 5.0
    vertex 152.49999999999997 17.499999999999996 5.0
    vertex 167.49999999999997 17.499999999999996 5.0
  endloop
endfacet
facet normal 0.0 0.0 1.0
  outer loop
    vertex 169.99999999999997 19.999999999999996 5.0
    vertex 167.49999999999997 17.499999999999996 5.0
    vertex 169.99999999999997 0.0 5.0
  endloop
endfacet
facet normal 0.0 0.0 1.0
  outer loop
    vertex 150.0 4.93494134445882e-15 34.99999999999996
    vertex 152.5 2.500000000000005 34.99999999999996
    vertex 150.0 19.999999999999986 34.99999999999996
  endloop
endfacet
facet normal 0.0 0.0 1.0
  outer loop
    vertex 152.5 2.500000000000005 34.99999999999996
    vertex 150.0 4.93494134445882e-15 34.99999999999996
    vertex 169.99999999999997 4.93494134445882e-15 34.99999999999996
  endloop
endfacet
facet normal 0.0 0.0 1.0
  outer loop
    vertex 152.5 2.500000000000005 34.99999999999996
    vertex 169.99999999999997 4.93494134445882e-15 34.99999999999996
    vertex 167.49999999999997 2.500000000000005 34.99999999999996
  endloop
endfacet
facet normal 0.0 0.0 1.0
  outer loop
    vertex 167.49999999999997 2.500000000000005 34.99999999999996
    vertex 169.99999999999997 4.93494134445882e-15 34.99999999999996
    vertex 167.49999999999997 17.499999999999986 34.99999999999996
  endloop
endfacet
facet normal 0.0 0.0 1.0
  outer loop
    vertex 150.0 19.999999999999986 34.99999999999996
    vertex 152.5 17.499999999999986 34.99999999999996
    vertex 169.99999999999997 19.999999999999986 34.99999999999996
  endloop
endfacet
facet normal 0.0 0.0 1.0
  outer loop
    vertex 152.5 17.499999999999986 34.99999999999996
    vertex 150.0 19.999999999999986 34.99999999999996
    vertex 152.5 2.500000000000005 34.99999999999996
  endloop
endfacet
facet normal 0.0 0.0 1.0
  outer loop
    vertex 169.99999999999997 19.999999999999986 34.99999999999996
    vertex 152.5 17.499999999999986 34.99999999999996
    vertex 167.49999999999997 17.499999999999986 34.99999999999996
  endloop
endfacet
facet normal 0.0 0.0 1.0
  outer loop
    vertex 169.99999999999997 19.999999999999986 34.99999999999996
    vertex 167.49999999999997 17.499999999999986 34.99999999999996
    vertex 169.99999999999997 4.93494134445882e-15 34.99999999999996
  endloop
endfacet
facet normal 0.0 0.0 -1.0
  outer loop
    vertex 169.99999999999997 19.999999999999996 -1.5653958587979452e-31
    vertex 149.99999999999997 0.0 -1.5653958587979452e-31
    vertex 149.99999999999997 19.999999999999996 -1.5653958587979452e-31
  endloop
endfacet
facet normal 0.0 0.0 -1.0
  outer loop
    vertex 149.99999999999997 0.0 -1.5653958587979452e-31
    vertex 169.99999999999997 19.999999999999996 -1.5653958587979452e-31
    vertex 169.99999999999997 0.0 -1.5653958587979452e-31
  endloop
endfacet
facet normal -1.0 0.0 0.0
  outer loop
    vertex 152.49999999999997 17.499999999999996 7.5
    vertex 152.49999999999997 2.5000000000000004 5.0
    vertex 152.49999999999997 2.5000000000000004 7.5
  endloop
endfacet
facet normal -1.0 0.0 0.0
  outer loop
    vertex 152.49999999999997 2.5000000000000004 5.0
    vertex 152.49999999999997 17.499999999999996 7.5
    vertex 152.49999999999997 17.499999999999996 5.0
  endloop
endfacet
facet normal 0.0 -1.0 0.0
  outer loop
    vertex 169.99999999999997 4.93494134445882e-15 34.99999999999996
    vertex 150.0 4.93494134445882e-15 7.5
    vertex 169.99999999999997 4.93494134445882e-15 7.5
  endloop
endfacet
facet normal 0.0 -1.0 0.0
  outer loop
    vertex 150.0 4.93494134445882e-15 7.5
    vertex 169.99999999999997 4.93494134445882e-15 34.99999999999996
    vertex 150.0 4.93494134445882e-15 34.99999999999996
  endloop
endfacet
facet normal -0.0 1.0 -0.0
  outer loop
    vertex 152.5 17.499999999999986 37.499999999999986
    vertex 167.49999999999997 17.499999999999986 34.99999999999996
    vertex 152.5 17.499999999999986 34.99999999999996
  endloop
endfacet
facet normal -0.0 1.0 -0.0
  outer loop
    vertex 167.49999999999997 17.499999999999986 34.99999999999996
    vertex 152.5 17.499999999999986 37.499999999999986
    vertex 167.49999999999997 17.499999999999986 37.499999999999986
  endloop
endfacet
facet normal -1.0 0.0 0.0
  outer loop
    vertex 150.0 19.999999999999986 34.99999999999996
    vertex 150.0 4.93494134445882e-15 7.5
    vertex 150.0 4.93494134445882e-15 34.99999999999996
  endloop
endfacet
facet normal -1.0 0.0 0.0
  outer loop
    vertex 150.0 4.93494134445882e-15 7.5
    vertex 150.0 19.999999999999986 34.99999999999996
    vertex 150.0 19.999999999999986 7.5
  endloop
endfacet
facet normal 0.0 1.0 0.0
  outer loop
    vertex 149.99999999999997 19.999999999999996 5.0
    vertex 169.99999999999997 19.999999999999996 -1.5653958587979452e-31
    vertex 149.99999999999997 19.999999999999996 -1.5653958587979452e-31
  endloop
endfacet
facet normal 0.0 1.0 0.0
  outer loop
    vertex 169.99999999999997 19.999999999999996 -1.5653958587979452e-31
    vertex 149.99999999999997 19.999999999999996 5.0
    vertex 169.99999999999997 19.999999999999996 5.0
  endloop
endfacet
facet normal -1.0 0.0 0.0
  outer loop
    vertex 152.5 17.499999999999986 37.499999999999986
    vertex 152.5 2.500000000000005 34.99999999999996
    vertex 152.5 2.500000000000005 37.499999999999986
  endloop
endfacet
facet normal -1.0 0.0 0.0
  outer loop
    vertex 152.5 2.500000000000005 34.99999999999996
    vertex 152.5 17.499999999999986 37.499999999999986
    vertex 152.5 17.499999999999986 34.99999999999996
  endloop
endfacet
facet normal 0.0 -1.0 0.0
  outer loop
    vertex 167.49999999999997 2.500000000000005 42.50000000000005
    vertex 152.5 2.500000000000005 40.000000000000014
    vertex 167.49999999999997 2.500000000000005 40.000000000000014
  endloop
endfacet
facet normal 0.0 -1.0 0.0
  outer loop
    vertex 152.5 2.500000000000005 40.000000000000014
    vertex 167.49999999999997 2.500000000000005 42.50000000000005
    vertex 152.5 2.500000000000005 42.50000000000005
  endloop
endfacet
facet normal 0.0 0.0 -1.0
  outer loop
    vertex 150.0 19.999999999999986 7.5
    vertex 152.49999999999997 17.499999999999996 7.5
    vertex 150.0 4.93494134445882e-15 7.5
  endloop
endfacet
facet normal 0.0 0.0 -1.0
  outer loop
    vertex 152.49999999999997 17.499999999999996 7.5
    vertex 150.0 19.999999999999986 7.5
    vertex 169.99999999999997 19.999999999999986 7.5
  endloop
endfacet
facet normal 0.0 0.0 -1.0
  outer loop
    vertex 152.49999999999997 17.499999999999996 7.5
    vertex 169.99999999999997 19.999999999999986 7.5
    vertex 167.49999999999997 17.499999999999996 7.5
  endloop
endfacet
facet normal 0.0 0.0 -1.0
  outer loop
    vertex 167.49999999999997 17.499999999999996 7.5
    vertex 169.99999999999997 19.999999999999986 7.5
    vertex 167.49999999999997 2.5000000000000004 7.5
  endloop
endfacet
facet normal 0.0 0.0 -1.0
  outer loop
    vertex 150.0 4.93494134445882e-15 7.5
    vertex 152.49999999999997 2.5000000000000004 7.5
    vertex 169.99999999999997 4.93494134445882e-15 7.5
  endloop
endfacet
facet normal 0.0 0.0 -1.0
  outer loop
    vertex 152.49999999999997 2.5000000000000004 7.5
    vertex 150.0 4.93494134445882e-15 7.5
    vertex 152.49999999999997 17.499999999999996 7.5
  endloop
endfacet
facet normal 0.0 0.0 -1.0
  outer loop
    vertex 169.99999999999997 4.93494134445882e-15 7.5
    vertex 152.49999999999997 2.5000000000000004 7.5
    vertex 167.49999999999997 2.5000000000000004 7.5
  endloop
endfacet
facet normal 0.0 0.0 -1.0
  outer loop
    vertex 169.99999999999997 4.93494134445882e-15 7.5
    vertex 167.49999999999997 2.5000000000000004 7.5
    vertex 169.99999999999997 19.999999999999986 7.5
  endloop
endfacet
endsolid Kessler chess set
