solid Kessler chess set
facet normal 0.0 1.0 0.0
  outer loop
    vertex 50.00000000000003 19.999999999999986 27.5
    vertex 69.99999999999999 19.999999999999986 7.5
    vertex 50.00000000000003 19.999999999999986 7.5
  endloop
endfacet
facet normal 0.0 1.0 0.0
  outer loop
    vertex 69.99999999999999 19.999999999999986 7.5
    vertex 50.00000000000003 19.999999999999986 27.5
    vertex 69.99999999999999 19.999999999999986 27.5
  endloop
endfacet
facet normal 0.0 0.0 1.0
  outer loop
    vertex 50.0 0.0 5.0
    vertex 52.49999999999999 2.5000000000000004 5.0
    vertex 50.0 19.999999999999996 5.0
  endloop
endfacet
facet normal 0.0 0.0 1.0
  outer loop
    vertex 52.49999999999999 2.5000000000000004 5.0
    vertex 50.0 0.0 5.0
    vertex 70.0 0.0 5.0
  endloop
endfacet
facet normal 0.0 0.0 1.0
  outer loop
    vertex 52.49999999999999 2.5000000000000004 5.0
    vertex 70.0 0.0 5.0
    vertex 67.49999999999999 2.5000000000000004 5.0
  endloop
endfacet
facet normal 0.0 0.0 1.0
  outer loop
    vertex 67.49999999999999 2.5000000000000004 5.0
    vertex 70.0 0.0 5.0
    vertex 67.49999999999999 17.499999999999996 5.0
  endloop
endfacet
facet normal 0.0 0.0 1.0
  outer loop
    vertex 50.0 19.999999999999996 5.0
    vertex 52.49999999999999 17.499999999999996 5.0
    vertex 70.0 19.999999999999996 5.0
  endloop
endfacet
facet normal 0.0 0.0 1.0
  outer loop
    vertex 52.49999999999999 17.499999999999996 5.0
    vertex 50.0 19.999999999999996 5.0
    vertex 52.49999999999999 2.5000000000000004 5.0
  endloop
endfacet
facet normal 0.0 0.0 1.0
  outer loop
    vertex 70.0 19.999999999999996 5.0
    vertex 52.49999999999999 17.499999999999996 5.0
    vertex 67.49999999999999 17.499999999999996 5.0
  endloop
endfacet
facet normal 0.0 0.0 1.0
  outer loop
    vertex 70.0 19.999999999999996 5.0
    vertex 67.49999999999999 17.499999999999996 5.0
    vertex 70.0 0.0 5.0
  endloop
endfacet
facet normal 1.0 0.0 0.0
  outer loop
    vertex 70.0 19.999999999999996 0.0
    vertex 70.0 0.0 5.0
    vertex 70.0 0.0 0.0
  endloop
endfacet
facet normal 1.0 0.0 0.0
  outer loop
    vertex 70.0 0.0 5.0
    vertex 70.0 19.999999999999996 0.0
    vertex 70.0 19.999999999999996 5.0
  endloop
endfacet
facet normal 0.0 -1.0 0.0
  outer loop
    vertex 69.99999999999999 4.93494134445882e-15 27.5
    vertex 50.00000000000003 4.93494134445882e-15 7.5
    vertex 69.99999999999999 4.93494134445882e-15 7.5
  endloop
endfacet
facet normal 0.0 -1.0 0.0
  outer loop
    vertex 50.00000000000003 4.93494134445882e-15 7.5
    vertex 69.99999999999999 4.93494134445882e-15 27.5
    vertex 50.00000000000003 4.93494134445882e-15 27.5
  endloop
endfacet
facet normal 0.0 -1.0 0.0
  outer loop
    vertex 67.49999999999999 2.5000000000000004 7.5
    vertex 52.49999999999999 2.5000000000000004 5.0
    vertex 67.49999999999999 2.5000000000000004 5.0
  endloop
endfacet
facet normal 0.0 -1.0 0.0
  outer loop
    vertex 52.49999999999999 2.5000000000000004 5.0
    vertex 67.49999999999999 2.5000000000000004 7.5
    vertex 52.49999999999999 2.5000000000000004 7.5
  endloop
endfacet
facet normal 0.0 1.0 0.0
  outer loop
    vertex 52.49999999999999 17.499999999999996 7.5
    vertex 67.49999999999999 17.499999999999996 5.0
    vertex 52.49999999999999 17.499999999999996 5.0
  endloop
endfacet
facet normal 0.0 1.0 0.0
  outer loop
    vertex 67.49999999999999 17.499999999999996 5.0
    vertex 52.49999999999999 17.499999999999996 7.5
    vertex 67.49999999999999 17.499999999999996 7.5
  endloop
endfacet
facet normal 1.0 0.0 0.0
  outer loop
    vertex 69.99999999999999 19.999999999999986 7.5
    vertex 69.99999999999999 4.93494134445882e-15 27.5
    vertex 69.99999999999999 4.93494134445882e-15 7.5
  endloop
endfacet
facet normal 1.0 0.0 0.0
  outer loop
    vertex 69.99999999999999 4.93494134445882e-15 27.5
    vertex 69.99999999999999 19.999999999999986 7.5
    vertex 69.99999999999999 19.999999999999986 27.5
  endloop
endfacet
facet normal -1.0 0.0 0.0
  outer loop
    vertex 52.49999999999999 17.499999999999996 7.5
    vertex 52.49999999999999 2.5000000000000004 5.0
    vertex 52.49999999999999 2.5000000000000004 7.5
  endloop
endfacet
facet normal -1.0 0.0 0.0
  outer loop
    vertex 52.49999999999999 2.5000000000000004 5.0
    vertex 52.49999999999999 17.499999999999996 7.5
    vertex 52.49999999999999 17.499999999999996 5.0
  endloop
endfacet
facet normal 0.0 0.0 -1.0
  outer loop
    vertex 70.0 19.999999999999996 0.0
    vertex 50.0 0.0 0.0
    vertex 50.0 19.999999999999996 0.0
  endloop
endfacet
facet normal 0.0 0.0 -1.0
  outer loop
    vertex 50.0 0.0 0.0
    vertex 70.0 19.999999999999996 0.0
    vertex 70.0 0.0 0.0
  endloop
endfacet
facet normal -0.0 -1.0 -0.0
  outer loop
    vertex 70.0 0.0 5.0
    vertex 50.0 0.0 0.0
    vertex 70.0 0.0 0.0
  endloop
endfacet
facet normal -0.0 -1.0 -0.0
  outer loop
    vertex 50.0 0.0 0.0
    vertex 70.0 0.0 5.0
    vertex 50.0 0.0 5.0
  endloop
endfacet
facet normal 1.0 0.0 0.0
  outer loop
    vertex 67.49999999999999 17.499999999999996 5.0
    vertex 67.49999999999999 2.5000000000000004 7.5
    vertex 67.49999999999999 2.5000000000000004 5.0
  endloop
endfacet
facet normal 1.0 0.0 0.0
  outer loop
    vertex 67.49999999999999 2.5000000000000004 7.5
    vertex 67.49999999999999 17.499999999999996 5.0
    vertex 67.49999999999999 17.499999999999996 7.5
  endloop
endfacet
facet normal 0.0 0.0 -1.0
  outer loop
    vertex 50.00000000000003 19.999999999999986 7.5
    vertex 52.49999999999999 17.499999999999996 7.5
    vertex 50.00000000000003 4.93494134445882e-15 7.5
  endloop
endfacet
facet normal 0.0 0.0 -1.0
  outer loop
    vertex 52.49999999999999 17.499999999999996 7.5
    vertex 50.00000000000003 19.999999999999986 7.5
    vertex 69.99999999999999 19.999999999999986 7.5
  endloop
endfacet
facet normal 0.0 0.0 -1.0
  outer loop
    vertex 52.49999999999999 17.499999999999996 7.5
    vertex 69.99999999999999 19.999999999999986 7.5
    vertex 67.49999999999999 17.499999999999996 7.5
  endloop
endfacet
facet normal 0.0 0.0 -1.0
  outer loop
    vertex 67.49999999999999 17.499999999999996 7.5
    vertex 69.99999999999999 19.999999999999986 7.5
    vertex 67.49999999999999 2.5000000000000004 7.5
  endloop
endfacet
facet normal 0.0 0.0 -1.0
  outer loop
    vertex 50.00000000000003 4.93494134445882e-15 7.5
    vertex 52.49999999999999 2.5000000000000004 7.5
    vertex 69.99999999999999 4.93494134445882e-15 7.5
  endloop
endfacet
facet normal 0.0 0.0 -1.0
  outer loop
    vertex 52.49999999999999 2.5000000000000004 7.5
    vertex 50.00000000000003 4.93494134445882e-15 7.5
    vertex 52.49999999999999 17.499999999999996 7.5
  endloop
endfacet
facet normal 0.0 0.0 -1.0
  outer loop
    vertex 69.99999999999999 4.93494134445882e-15 7.5
    vertex 52.49999999999999 2.5000000000000004 7.5
    vertex 67.49999999999999 2.5000000000000004 7.5
  endloop
endfacet
facet normal 0.0 0.0 -1.0
  outer loop
    vertex 69.99999999999999 4.93494134445882e-15 7.5
    vertex 67.49999999999999 2.5000000000000004 7.5
    vertex 69.99999999999999 19.999999999999986 7.5
  endloop
endfacet
facet normal -1.0 0.0 0.0
  outer loop
    vertex 50.00000000000003 19.999999999999986 27.5
    vertex 50.00000000000003 4.93494134445882e-15 7.5
    vertex 50.00000000000003 4.93494134445882e-15 27.5
  endloop
endfacet
facet normal -1.0 0.0 0.0
  outer loop
    vertex 50.00000000000003 4.93494134445882e-15 7.5
    vertex 50.00000000000003 19.999999999999986 27.5
    vertex 50.00000000000003 19.999999999999986 7.5
  endloop
endfacet
facet normal 0.0 1.0 0.0
  outer loop
    vertex 50.0 19.999999999999996 5.0
    vertex 70.0 19.999999999999996 0.0
    vertex 50.0 19.999999999999996 0.0
  endloop
endfacet
facet normal 0.0 1.0 0.0
  outer loop
    vertex 70.0 19.999999999999996 0.0
    vertex 50.0 19.999999999999996 5.0
    vertex 70.0 19.999999999999996 5.0
  endloop
endfacet
facet normal -1.0 0.0 0.0
  outer loop
    vertex 50.0 19.999999999999996 5.0
    vertex 50.0 0.0 0.0
    vertex 50.0 0.0 5.0
  endloop
endfacet
facet normal -1.0 0.0 0.0
  outer loop
    vertex 50.0 0.0 0.0
    vertex 50.0 19.999999999999996 5.0
    vertex 50.0 19.999999999999996 0.0
  endloop
endfacet
facet normal 0.0 0.0 1.0
  outer loop
    vertex 50.00000000000003 4.93494134445882e-15 27.5
    vertex 52.50000000000003 2.500000000000005 27.5
    vertex 50.00000000000003 19.999999999999986 27.5
  endloop
endfacet
facet normal 0.0 0.0 1.0
  outer loop
    vertex 52.50000000000003 2.500000000000005 27.5
    vertex 50.00000000000003 4.93494134445882e-15 27.5
    vertex 69.99999999999999 4.93494134445882e-15 27.5
  endloop
endfacet
facet normal 0.0 0.0 1.0
  outer loop
    vertex 52.50000000000003 2.500000000000005 27.5
    vertex 69.99999999999999 4.93494134445882e-15 27.5
    vertex 67.49999999999999 2.500000000000005 27.5
  endloop
endfacet
facet normal 0.0 0.0 1.0
  outer loop
    vertex 67.49999999999999 2.500000000000005 27.5
    vertex 69.99999999999999 4.93494134445882e-15 27.5
    vertex 67.49999999999999 17.499999999999986 27.5
  endloop
endfacet
facet normal 0.0 0.0 1.0
  outer loop
    vertex 50.00000000000003 19.999999999999986 27.5
    vertex 52.50000000000003 17.499999999999986 27.5
    vertex 69.99999999999999 19.999999999999986 27.5
  endloop
endfacet
facet normal 0.0 0.0 1.0
  outer loop
    vertex 52.50000000000003 17.499999999999986 27.5
    vertex 50.00000000000003 19.999999999999986 27.5
    vertex 52.50000000000003 2.500000000000005 27.5
  endloop
endfacet
facet normal 0.0 0.0 1.0
  outer loop
    vertex 69.99999999999999 19.999999999999986 27.5
    vertex 52.50000000000003 17.499999999999986 27.5
    vertex 67.49999999999999 17.499999999999986 27.5
  endloop
endfacet
facet normal 0.0 0.0 1.0
  outer loop
    vertex 69.99999999999999 19.999999999999986 27.5
    vertex 67.49999999999999 17.499999999999986 27.5
    vertex 69.99999999999999 4.93494134445882e-15 27.5
  endloop
endfacet
facet normal 1.0 -0.0 -0.0
  outer loop
    vertex 67.49999999999999 17.499999999999986 27.5
    vertex 67.49999999999999 2.500000000000005 30.0
    vertex 67.49999999999999 2.500000000000005 27.5
  endloop
endfacet
facet normal 1.0 -0.0 -0.0
  outer loop
    vertex 67.49999999999999 2.500000000000005 30.0
    vertex 67.49999999999999 17.499999999999986 27.5
    vertex 67.49999999999999 17.499999999999986 30.0
  endloop
endfacet
facet normal -1.0 0.0 0.0
  outer loop
    vertex 52.50000000000003 17.499999999999986 30.0
    vertex 52.50000000000003 2.500000000000005 27.5
    vertex 52.50000000000003 2.500000000000005 30.0
  endloop
endfacet
facet normal -1.0 0.0 0.0
  outer loop
    vertex 52.50000000000003 2.500000000000005 27.5
    vertex 52.50000000000003 17.499999999999986 30.0
    vertex 52.50000000000003 17.499999999999986 27.5
  endloop
endfacet
facet normal 0.0 -1.0 0.0
  outer loop
    vertex 67.49999999999999 2.500000000000005 30.0
    vertex 52.50000000000003 2.500000000000005 27.5
    vertex 67.49999999999999 2.500000000000005 27.5
  endloop
endfacet
facet normal 0.0 -1.0 0.0
  outer loop
    vertex 52.50000000000003 2.500000000000005 27.5
    vertex 67.49999999999999 2.500000000000005 30.0
    vertex 52.50000000000003 2.500000000000005 30.0
  endloop
endfacet
facet normal -1.0 -4.4061976289809604e-17 5.728056917675416e-16
  outer loop
    vertex 50.000000000000036 12.000000000000052 35.0
    vertex 50.000000000000036 8.00000000000006 32.5
    vertex 50.000000000000036 8.00000000000006 35.0
  endloop
endfacet
facet normal -1.0 -4.4061976289809604e-17 5.728056917675416e-16
  outer loop
    vertex 50.00000000000003 19.99999999999999 35.0
    vertex 50.000000000000036 16.00000000000005 32.5
    vertex 50.000000000000036 16.00000000000005 35.0
  endloop
endfacet
facet normal -1.0 -4.4061976289809604e-17 5.728056917675416e-16
  outer loop
    vertex 50.000000000000036 4.00000000000006 35.0
    vertex 50.00000000000003 -1.4099832412739487e-15 30.0
    vertex 50.00000000000003 -1.4099832412739487e-15 35.0
  endloop
endfacet
facet normal -1.0 -4.4061976289809604e-17 5.728056917675416e-16
  outer loop
    vertex 50.00000000000003 -1.4099832412739487e-15 30.0
    vertex 50.000000000000036 4.00000000000006 35.0
    vertex 50.000000000000036 4.00000000000006 32.5
  endloop
endfacet
facet normal -1.0 -4.4061976289809604e-17 5.728056917675416e-16
  outer loop
    vertex 50.00000000000003 -1.4099832412739487e-15 30.0
    vertex 50.000000000000036 4.00000000000006 32.5
    vertex 50.00000000000003 19.99999999999999 30.0
  endloop
endfacet
facet normal -1.0 -4.4061976289809604e-17 5.728056917675416e-16
  outer loop
    vertex 50.00000000000003 19.99999999999999 30.0
    vertex 50.000000000000036 4.00000000000006 32.5
    vertex 50.000000000000036 8.00000000000006 32.5
  endloop
endfacet
facet normal -1.0 -4.4061976289809604e-17 5.728056917675416e-16
  outer loop
    vertex 50.00000000000003 19.99999999999999 30.0
    vertex 50.000000000000036 8.00000000000006 32.5
    vertex 50.000000000000036 12.000000000000052 32.5
  endloop
endfacet
facet normal -1.0 -4.4061976289809604e-17 5.728056917675416e-16
  outer loop
    vertex 50.000000000000036 12.000000000000052 32.5
    vertex 50.000000000000036 8.00000000000006 32.5
    vertex 50.000000000000036 12.000000000000052 35.0
  endloop
endfacet
facet normal -1.0 -4.4061976289809604e-17 5.728056917675416e-16
  outer loop
    vertex 50.00000000000003 19.99999999999999 30.0
    vertex 50.000000000000036 12.000000000000052 32.5
    vertex 50.000000000000036 16.00000000000005 32.5
  endloop
endfacet
facet normal -1.0 -4.4061976289809604e-17 5.728056917675416e-16
  outer loop
    vertex 50.00000000000003 19.99999999999999 30.0
    vertex 50.000000000000036 16.00000000000005 32.5
    vertex 50.00000000000003 19.99999999999999 35.0
  endloop
endfacet
facet normal -0.0 -0.0 1.0
  outer loop
    vertex 50.000000000000036 16.00000000000005 35.0
    vertex 54.00000000000003 19.99999999999999 35.0
    vertex 50.00000000000003 19.99999999999999 35.0
  endloop
endfacet
facet normal -0.0 -0.0 1.0
  outer loop
    vertex 54.00000000000003 19.99999999999999 35.0
    vertex 50.000000000000036 16.00000000000005 35.0
    vertex 54.00000000000003 16.00000000000005 35.0
  endloop
endfacet
facet normal -0.0 1.0 -0.0
  outer loop
    vertex 52.50000000000003 17.499999999999986 30.0
    vertex 67.49999999999999 17.499999999999986 27.5
    vertex 52.50000000000003 17.499999999999986 27.5
  endloop
endfacet
facet normal -0.0 1.0 -0.0
  outer loop
    vertex 67.49999999999999 17.499999999999986 27.5
    vertex 52.50000000000003 17.499999999999986 30.0
    vertex 67.49999999999999 17.499999999999986 30.0
  endloop
endfacet
facet normal 0.0 0.0 -1.0
  outer loop
    vertex 50.00000000000003 19.99999999999999 30.0
    vertex 52.50000000000003 17.499999999999986 30.0
    vertex 50.00000000000003 -1.4099832412739487e-15 30.0
  endloop
endfacet
facet normal 0.0 0.0 -1.0
  outer loop
    vertex 52.50000000000003 17.499999999999986 30.0
    vertex 50.00000000000003 19.99999999999999 30.0
    vertex 69.99999999999997 19.99999999999999 30.0
  endloop
endfacet
facet normal 0.0 0.0 -1.0
  outer loop
    vertex 52.50000000000003 17.499999999999986 30.0
    vertex 69.99999999999997 19.99999999999999 30.0
    vertex 67.49999999999999 17.499999999999986 30.0
  endloop
endfacet
facet normal 0.0 0.0 -1.0
  outer loop
    vertex 67.49999999999999 17.499999999999986 30.0
    vertex 69.99999999999997 19.99999999999999 30.0
    vertex 67.49999999999999 2.500000000000005 30.0
  endloop
endfacet
facet normal 0.0 0.0 -1.0
  outer loop
    vertex 50.00000000000003 -1.4099832412739487e-15 30.0
    vertex 52.50000000000003 2.500000000000005 30.0
    vertex 69.99999999999997 -1.4099832412739487e-15 30.0
  endloop
endfacet
facet normal 0.0 0.0 -1.0
  outer loop
    vertex 52.50000000000003 2.500000000000005 30.0
    vertex 50.00000000000003 -1.4099832412739487e-15 30.0
    vertex 52.50000000000003 17.499999999999986 30.0
  endloop
endfacet
facet normal 0.0 0.0 -1.0
  outer loop
    vertex 69.99999999999997 -1.4099832412739487e-15 30.0
    vertex 52.50000000000003 2.500000000000005 30.0
    vertex 67.49999999999999 2.500000000000005 30.0
  endloop
endfacet
facet normal 0.0 0.0 -1.0
  outer loop
    vertex 69.99999999999997 -1.4099832412739487e-15 30.0
    vertex 67.49999999999999 2.500000000000005 30.0
    vertex 69.99999999999997 19.99999999999999 30.0
  endloop
endfacet
facet normal -0.0 -0.0 1.0
  outer loop
    vertex 69.99999999999997 3.999999999999998 32.5
    vertex 65.99999999999999 7.999999999999998 32.5
    vertex 65.99999999999999 3.999999999999998 32.5
  endloop
endfacet
facet normal -0.0 -0.0 1.0
  outer loop
    vertex 65.99999999999999 7.999999999999998 32.5
    vertex 69.99999999999997 3.999999999999998 32.5
    vertex 69.99999999999997 7.999999999999998 32.5
  endloop
endfacet
facet normal -0.0 -0.0 1.0
  outer loop
    vertex 65.99999999999997 1.4099832412739488e-14 32.5
    vertex 61.99999999999998 4.000000000000029 32.5
    vertex 61.99999999999998 1.4099832412739488e-14 32.5
  endloop
endfacet
facet normal -0.0 -0.0 1.0
  outer loop
    vertex 61.99999999999998 4.000000000000029 32.5
    vertex 65.99999999999997 1.4099832412739488e-14 32.5
    vertex 61.99999999999998 8.000000000000028 32.5
  endloop
endfacet
facet normal -0.0 -0.0 1.0
  outer loop
    vertex 61.99999999999998 8.000000000000028 32.5
    vertex 65.99999999999997 1.4099832412739488e-14 32.5
    vertex 61.99999999999998 11.99999999999999 32.5
  endloop
endfacet
facet normal -0.0 -0.0 1.0
  outer loop
    vertex 61.99999999999998 11.99999999999999 32.5
    vertex 65.99999999999997 1.4099832412739488e-14 32.5
    vertex 61.99999999999998 15.999999999999988 32.5
  endloop
endfacet
facet normal -0.0 -0.0 1.0
  outer loop
    vertex 61.99999999999998 15.999999999999988 32.5
    vertex 65.99999999999997 1.4099832412739488e-14 32.5
    vertex 61.99999999999998 19.99999999999999 32.5
  endloop
endfacet
facet normal -0.0 -0.0 1.0
  outer loop
    vertex 61.99999999999998 19.99999999999999 32.5
    vertex 65.99999999999997 1.4099832412739488e-14 32.5
    vertex 65.99999999999997 19.99999999999999 32.5
  endloop
endfacet
facet normal -0.0 -0.0 1.0
  outer loop
    vertex 65.99999999999997 19.99999999999999 32.5
    vertex 65.99999999999997 1.4099832412739488e-14 32.5
    vertex 65.99999999999999 3.999999999999998 32.5
  endloop
endfacet
facet normal -0.0 -0.0 1.0
  outer loop
    vertex 65.99999999999997 19.99999999999999 32.5
    vertex 65.99999999999999 3.999999999999998 32.5
    vertex 65.99999999999999 7.999999999999998 32.5
  endloop
endfacet
facet normal -0.0 -0.0 1.0
  outer loop
    vertex 65.99999999999997 19.99999999999999 32.5
    vertex 65.99999999999999 7.999999999999998 32.5
    vertex 65.99999999999999 15.999999999999988 32.5
  endloop
endfacet
facet normal -0.0 -0.0 1.0
  outer loop
    vertex 65.99999999999999 15.999999999999988 32.5
    vertex 65.99999999999999 7.999999999999998 32.5
    vertex 65.99999999999999 11.99999999999999 32.5
  endloop
endfacet
facet normal -0.0 -0.0 1.0
  outer loop
    vertex 61.99999999999998 11.99999999999999 32.5
    vertex 58.00000000000003 15.999999999999988 32.5
    vertex 58.00000000000003 11.99999999999999 32.5
  endloop
endfacet
facet normal -0.0 -0.0 1.0
  outer loop
    vertex 58.00000000000003 15.999999999999988 32.5
    vertex 61.99999999999998 11.99999999999999 32.5
    vertex 61.99999999999998 15.999999999999988 32.5
  endloop
endfacet
facet normal -0.0 -0.0 1.0
  outer loop
    vertex 61.99999999999998 4.000000000000029 32.5
    vertex 58.00000000000003 8.000000000000028 32.5
    vertex 58.00000000000003 4.000000000000029 32.5
  endloop
endfacet
facet normal -0.0 -0.0 1.0
  outer loop
    vertex 58.00000000000003 8.000000000000028 32.5
    vertex 61.99999999999998 4.000000000000029 32.5
    vertex 61.99999999999998 8.000000000000028 32.5
  endloop
endfacet
facet normal -0.0 -0.0 1.0
  outer loop
    vertex 58.00000000000003 1.6919798895287383e-14 32.5
    vertex 54.00000000000003 4.00000000000006 32.5
    vertex 54.00000000000003 1.6919798895287383e-14 32.5
  endloop
endfacet
facet normal -0.0 -0.0 1.0
  outer loop
    vertex 54.00000000000003 4.00000000000006 32.5
    vertex 58.00000000000003 1.6919798895287383e-14 32.5
    vertex 54.00000000000003 8.00000000000006 32.5
  endloop
endfacet
facet normal -0.0 -0.0 1.0
  outer loop
    vertex 54.00000000000003 8.00000000000006 32.5
    vertex 58.00000000000003 1.6919798895287383e-14 32.5
    vertex 54.00000000000003 12.000000000000052 32.5
  endloop
endfacet
facet normal -0.0 -0.0 1.0
  outer loop
    vertex 54.00000000000003 12.000000000000052 32.5
    vertex 58.00000000000003 1.6919798895287383e-14 32.5
    vertex 54.00000000000003 16.00000000000005 32.5
  endloop
endfacet
facet normal -0.0 -0.0 1.0
  outer loop
    vertex 54.00000000000003 16.00000000000005 32.5
    vertex 58.00000000000003 1.6919798895287383e-14 32.5
    vertex 54.00000000000003 19.99999999999999 32.5
  endloop
endfacet
facet normal -0.0 -0.0 1.0
  outer loop
    vertex 54.00000000000003 19.99999999999999 32.5
    vertex 58.00000000000003 1.6919798895287383e-14 32.5
    vertex 58.00000000000003 19.99999999999999 32.5
  endloop
endfacet
facet normal -0.0 -0.0 1.0
  outer loop
    vertex 58.00000000000003 19.99999999999999 32.5
    vertex 58.00000000000003 1.6919798895287383e-14 32.5
    vertex 58.00000000000003 4.000000000000029 32.5
  endloop
endfacet
facet normal -0.0 -0.0 1.0
  outer loop
    vertex 58.00000000000003 19.99999999999999 32.5
    vertex 58.00000000000003 4.000000000000029 32.5
    vertex 58.00000000000003 8.000000000000028 32.5
  endloop
endfacet
facet normal -0.0 -0.0 1.0
  outer loop
    vertex 58.00000000000003 19.99999999999999 32.5
    vertex 58.00000000000003 8.000000000000028 32.5
    vertex 58.00000000000003 11.99999999999999 32.5
  endloop
endfacet
facet normal -0.0 -0.0 1.0
  outer loop
    vertex 58.00000000000003 19.99999999999999 32.5
    vertex 58.00000000000003 11.99999999999999 32.5
    vertex 58.00000000000003 15.999999999999988 32.5
  endloop
endfacet
facet normal -0.0 -0.0 1.0
  outer loop
    vertex 54.00000000000003 12.000000000000052 32.5
    vertex 50.000000000000036 16.00000000000005 32.5
    vertex 50.000000000000036 12.000000000000052 32.5
  endloop
endfacet
facet normal -0.0 -0.0 1.0
  outer loop
    vertex 50.000000000000036 16.00000000000005 32.5
    vertex 54.00000000000003 12.000000000000052 32.5
    vertex 54.00000000000003 16.00000000000005 32.5
  endloop
endfacet
facet normal -0.0 -0.0 1.0
  outer loop
    vertex 54.00000000000003 4.00000000000006 32.5
    vertex 50.000000000000036 8.00000000000006 32.5
    vertex 50.000000000000036 4.00000000000006 32.5
  endloop
endfacet
facet normal -0.0 -0.0 1.0
  outer loop
    vertex 50.000000000000036 8.00000000000006 32.5
    vertex 54.00000000000003 4.00000000000006 32.5
    vertex 54.00000000000003 8.00000000000006 32.5
  endloop
endfacet
facet normal -0.0 1.0 -0.0
  outer loop
    vertex 50.00000000000003 19.99999999999999 30.0
    vertex 54.00000000000003 19.99999999999999 32.5
    vertex 69.99999999999997 19.99999999999999 30.0
  endloop
endfacet
facet normal -0.0 1.0 -0.0
  outer loop
    vertex 54.00000000000003 19.99999999999999 32.5
    vertex 50.00000000000003 19.99999999999999 30.0
    vertex 50.00000000000003 19.99999999999999 35.0
  endloop
endfacet
facet normal -0.0 1.0 -0.0
  outer loop
    vertex 54.00000000000003 19.99999999999999 32.5
    vertex 50.00000000000003 19.99999999999999 35.0
    vertex 54.00000000000003 19.99999999999999 35.0
  endloop
endfacet
facet normal -0.0 1.0 -0.0
  outer loop
    vertex 58.00000000000003 19.99999999999999 35.0
    vertex 61.99999999999998 19.99999999999999 32.5
    vertex 58.00000000000003 19.99999999999999 32.5
  endloop
endfacet
facet normal -0.0 1.0 -0.0
  outer loop
    vertex 61.99999999999998 19.99999999999999 32.5
    vertex 58.00000000000003 19.99999999999999 35.0
    vertex 61.99999999999998 19.99999999999999 35.0
  endloop
endfacet
facet normal -0.0 1.0 -0.0
  outer loop
    vertex 69.99999999999997 19.99999999999999 30.0
    vertex 65.99999999999997 19.99999999999999 32.5
    vertex 69.99999999999997 19.99999999999999 35.0
  endloop
endfacet
facet normal -0.0 1.0 -0.0
  outer loop
    vertex 65.99999999999997 19.99999999999999 32.5
    vertex 69.99999999999997 19.99999999999999 30.0
    vertex 54.00000000000003 19.99999999999999 32.5
  endloop
endfacet
facet normal -0.0 1.0 -0.0
  outer loop
    vertex 65.99999999999997 19.99999999999999 32.5
    vertex 54.00000000000003 19.99999999999999 32.5
    vertex 58.00000000000003 19.99999999999999 32.5
  endloop
endfacet
facet normal -0.0 1.0 -0.0
  outer loop
    vertex 65.99999999999997 19.99999999999999 32.5
    vertex 58.00000000000003 19.99999999999999 32.5
    vertex 61.99999999999998 19.99999999999999 32.5
  endloop
endfacet
facet normal -0.0 1.0 -0.0
  outer loop
    vertex 69.99999999999997 19.99999999999999 35.0
    vertex 65.99999999999997 19.99999999999999 32.5
    vertex 65.99999999999997 19.99999999999999 35.0
  endloop
endfacet
facet normal 1.0 -0.0 -0.0
  outer loop
    vertex 61.99999999999998 4.000000000000029 32.5
    vertex 61.99999999999998 1.4099832412739488e-14 35.0
    vertex 61.99999999999998 1.4099832412739488e-14 32.5
  endloop
endfacet
facet normal 1.0 -0.0 -0.0
  outer loop
    vertex 61.99999999999998 1.4099832412739488e-14 35.0
    vertex 61.99999999999998 4.000000000000029 32.5
    vertex 61.99999999999998 4.000000000000029 35.0
  endloop
endfacet
facet normal -1.0 2.819966482547909e-15 0.0
  outer loop
    vertex 65.99999999999999 3.999999999999998 35.0
    vertex 65.99999999999997 1.4099832412739488e-14 32.5
    vertex 65.99999999999997 1.4099832412739488e-14 35.0
  endloop
endfacet
facet normal -1.0 2.819966482547909e-15 0.0
  outer loop
    vertex 65.99999999999997 1.4099832412739488e-14 32.5
    vertex 65.99999999999999 3.999999999999998 35.0
    vertex 65.99999999999999 3.999999999999998 32.5
  endloop
endfacet
facet normal -0.0 -0.0 1.0
  outer loop
    vertex 65.99999999999999 15.999999999999988 35.0
    vertex 69.99999999999997 19.99999999999999 35.0
    vertex 65.99999999999997 19.99999999999999 35.0
  endloop
endfacet
facet normal -0.0 -0.0 1.0
  outer loop
    vertex 69.99999999999997 19.99999999999999 35.0
    vertex 65.99999999999999 15.999999999999988 35.0
    vertex 69.99999999999997 15.999999999999988 35.0
  endloop
endfacet
facet normal 7.160071147094272e-17 -1.0 1.7767991938866243e-15
  outer loop
    vertex 69.99999999999997 -1.4099832412739487e-15 30.0
    vertex 65.99999999999997 1.4099832412739488e-14 32.5
    vertex 50.00000000000003 -1.4099832412739487e-15 30.0
  endloop
endfacet
facet normal 7.160071147094272e-17 -1.0 1.7767991938866243e-15
  outer loop
    vertex 65.99999999999997 1.4099832412739488e-14 32.5
    vertex 69.99999999999997 -1.4099832412739487e-15 30.0
    vertex 69.99999999999997 -1.4099832412739487e-15 35.0
  endloop
endfacet
facet normal 7.160071147094272e-17 -1.0 1.7767991938866243e-15
  outer loop
    vertex 65.99999999999997 1.4099832412739488e-14 32.5
    vertex 69.99999999999997 -1.4099832412739487e-15 35.0
    vertex 65.99999999999997 1.4099832412739488e-14 35.0
  endloop
endfacet
facet normal 7.160071147094272e-17 -1.0 1.7767991938866243e-15
  outer loop
    vertex 61.99999999999998 1.4099832412739488e-14 35.0
    vertex 58.00000000000003 1.6919798895287383e-14 32.5
    vertex 61.99999999999998 1.4099832412739488e-14 32.5
  endloop
endfacet
facet normal 7.160071147094272e-17 -1.0 1.7767991938866243e-15
  outer loop
    vertex 58.00000000000003 1.6919798895287383e-14 32.5
    vertex 61.99999999999998 1.4099832412739488e-14 35.0
    vertex 58.00000000000003 1.6919798895287383e-14 35.0
  endloop
endfacet
facet normal 7.160071147094272e-17 -1.0 1.7767991938866243e-15
  outer loop
    vertex 50.00000000000003 -1.4099832412739487e-15 30.0
    vertex 54.00000000000003 1.6919798895287383e-14 32.5
    vertex 50.00000000000003 -1.4099832412739487e-15 35.0
  endloop
endfacet
facet normal 7.160071147094272e-17 -1.0 1.7767991938866243e-15
  outer loop
    vertex 54.00000000000003 1.6919798895287383e-14 32.5
    vertex 50.00000000000003 -1.4099832412739487e-15 30.0
    vertex 65.99999999999997 1.4099832412739488e-14 32.5
  endloop
endfacet
facet normal 7.160071147094272e-17 -1.0 1.7767991938866243e-15
  outer loop
    vertex 54.00000000000003 1.6919798895287383e-14 32.5
    vertex 65.99999999999997 1.4099832412739488e-14 32.5
    vertex 61.99999999999998 1.4099832412739488e-14 32.5
  endloop
endfacet
facet normal 7.160071147094272e-17 -1.0 1.7767991938866243e-15
  outer loop
    vertex 54.00000000000003 1.6919798895287383e-14 32.5
    vertex 61.99999999999998 1.4099832412739488e-14 32.5
    vertex 58.00000000000003 1.6919798895287383e-14 32.5
  endloop
endfacet
facet normal 7.160071147094272e-17 -1.0 1.7767991938866243e-15
  outer loop
    vertex 50.00000000000003 -1.4099832412739487e-15 35.0
    vertex 54.00000000000003 1.6919798895287383e-14 32.5
    vertex 54.00000000000003 1.6919798895287383e-14 35.0
  endloop
endfacet
facet normal -1.0 2.8199664825479038e-15 -1.262413490327569e-31
  outer loop
    vertex 65.99999999999999 11.99999999999999 35.0
    vertex 65.99999999999999 7.999999999999998 32.5
    vertex 65.99999999999999 7.999999999999998 35.0
  endloop
endfacet
facet normal -1.0 2.8199664825479038e-15 -1.262413490327569e-31
  outer loop
    vertex 65.99999999999999 7.999999999999998 32.5
    vertex 65.99999999999999 11.99999999999999 35.0
    vertex 65.99999999999999 11.99999999999999 32.5
  endloop
endfacet
facet normal -0.0 -0.0 1.0
  outer loop
    vertex 69.99999999999997 7.999999999999998 35.0
    vertex 65.99999999999999 11.99999999999999 35.0
    vertex 65.99999999999999 7.999999999999998 35.0
  endloop
endfacet
facet normal -0.0 -0.0 1.0
  outer loop
    vertex 65.99999999999999 11.99999999999999 35.0
    vertex 69.99999999999997 7.999999999999998 35.0
    vertex 69.99999999999997 11.99999999999999 35.0
  endloop
endfacet
facet normal 0.0 -1.0 0.0
  outer loop
    vertex 69.99999999999997 7.999999999999998 35.0
    vertex 65.99999999999999 7.999999999999998 32.5
    vertex 69.99999999999997 7.999999999999998 32.5
  endloop
endfacet
facet normal 0.0 -1.0 0.0
  outer loop
    vertex 65.99999999999999 7.999999999999998 32.5
    vertex 69.99999999999997 7.999999999999998 35.0
    vertex 65.99999999999999 7.999999999999998 35.0
  endloop
endfacet
facet normal 1.0 -0.0 -0.0
  outer loop
    vertex 54.00000000000003 19.99999999999999 32.5
    vertex 54.00000000000003 16.00000000000005 35.0
    vertex 54.00000000000003 16.00000000000005 32.5
  endloop
endfacet
facet normal 1.0 -0.0 -0.0
  outer loop
    vertex 54.00000000000003 16.00000000000005 35.0
    vertex 54.00000000000003 19.99999999999999 32.5
    vertex 54.00000000000003 19.99999999999999 35.0
  endloop
endfacet
facet normal -0.0 1.0 -0.0
  outer loop
    vertex 65.99999999999999 3.999999999999998 35.0
    vertex 69.99999999999997 3.999999999999998 32.5
    vertex 65.99999999999999 3.999999999999998 32.5
  endloop
endfacet
facet normal -0.0 1.0 -0.0
  outer loop
    vertex 69.99999999999997 3.999999999999998 32.5
    vertex 65.99999999999999 3.999999999999998 35.0
    vertex 69.99999999999997 3.999999999999998 35.0
  endloop
endfacet
facet normal -0.0 -0.0 1.0
  outer loop
    vertex 69.99999999999997 -1.4099832412739487e-15 35.0
    vertex 65.99999999999999 3.999999999999998 35.0
    vertex 65.99999999999997 1.4099832412739488e-14 35.0
  endloop
endfacet
facet normal -0.0 -0.0 1.0
  outer loop
    vertex 65.99999999999999 3.999999999999998 35.0
    vertex 69.99999999999997 -1.4099832412739487e-15 35.0
    vertex 69.99999999999997 3.999999999999998 35.0
  endloop
endfacet
facet normal -0.0 -0.0 1.0
  outer loop
    vertex 69.99999999999997 11.99999999999999 32.5
    vertex 65.99999999999999 15.999999999999988 32.5
    vertex 65.99999999999999 11.99999999999999 32.5
  endloop
endfacet
facet normal -0.0 -0.0 1.0
  outer loop
    vertex 65.99999999999999 15.999999999999988 32.5
    vertex 69.99999999999997 11.99999999999999 32.5
    vertex 69.99999999999997 15.999999999999988 32.5
  endloop
endfacet
facet normal -0.0 1.0 -0.0
  outer loop
    vertex 65.99999999999999 11.99999999999999 35.0
    vertex 69.99999999999997 11.99999999999999 32.5
    vertex 65.99999999999999 11.99999999999999 32.5
  endloop
endfacet
facet normal -0.0 1.0 -0.0
  outer loop
    vertex 69.99999999999997 11.99999999999999 32.5
    vertex 65.99999999999999 11.99999999999999 35.0
    vertex 69.99999999999997 11.99999999999999 35.0
  endloop
endfacet
facet normal 0.0 -1.0 0.0
  outer loop
    vertex 69.99999999999997 15.999999999999988 35.0
    vertex 65.99999999999999 15.999999999999988 32.5
    vertex 69.99999999999997 15.999999999999988 32.5
  endloop
endfacet
facet normal 0.0 -1.0 0.0
  outer loop
    vertex 65.99999999999999 15.999999999999988 32.5
    vertex 69.99999999999997 15.999999999999988 35.0
    vertex 65.99999999999999 15.999999999999988 35.0
  endloop
endfacet
facet normal 1.0 -0.0 -0.0
  outer loop
    vertex 69.99999999999997 -1.4099832412739487e-15 30.0
    vertex 69.99999999999997 3.999999999999998 32.5
    vertex 69.99999999999997 -1.4099832412739487e-15 35.0
  endloop
endfacet
facet normal 1.0 -0.0 -0.0
  outer loop
    vertex 69.99999999999997 3.999999999999998 32.5
    vertex 69.99999999999997 -1.4099832412739487e-15 30.0
    vertex 69.99999999999997 19.99999999999999 30.0
  endloop
endfacet
facet normal 1.0 -0.0 -0.0
  outer loop
    vertex 69.99999999999997 3.999999999999998 32.5
    vertex 69.99999999999997 19.99999999999999 30.0
    vertex 69.99999999999997 7.999999999999998 32.5
  endloop
endfacet
facet normal 1.0 -0.0 -0.0
  outer loop
    vertex 69.99999999999997 7.999999999999998 32.5
    vertex 69.99999999999997 19.99999999999999 30.0
    vertex 69.99999999999997 11.99999999999999 32.5
  endloop
endfacet
facet normal 1.0 -0.0 -0.0
  outer loop
    vertex 69.99999999999997 7.999999999999998 32.5
    vertex 69.99999999999997 11.99999999999999 32.5
    vertex 69.99999999999997 7.999999999999998 35.0
  endloop
endfacet
facet normal 1.0 -0.0 -0.0
  outer loop
    vertex 69.99999999999997 11.99999999999999 32.5
    vertex 69.99999999999997 19.99999999999999 30.0
    vertex 69.99999999999997 15.999999999999988 32.5
  endloop
endfacet
facet normal 1.0 -0.0 -0.0
  outer loop
    vertex 69.99999999999997 15.999999999999988 32.5
    vertex 69.99999999999997 19.99999999999999 30.0
    vertex 69.99999999999997 15.999999999999988 35.0
  endloop
endfacet
facet normal 1.0 -0.0 -0.0
  outer loop
    vertex 69.99999999999997 15.999999999999988 35.0
    vertex 69.99999999999997 19.99999999999999 30.0
    vertex 69.99999999999997 19.99999999999999 35.0
  endloop
endfacet
facet normal 1.0 -0.0 -0.0
  outer loop
    vertex 69.99999999999997 11.99999999999999 35.0
    vertex 69.99999999999997 7.999999999999998 35.0
    vertex 69.99999999999997 11.99999999999999 32.5
  endloop
endfacet
facet normal 1.0 -0.0 -0.0
  outer loop
    vertex 69.99999999999997 3.999999999999998 35.0
    vertex 69.99999999999997 -1.4099832412739487e-15 35.0
    vertex 69.99999999999997 3.999999999999998 32.5
  endloop
endfacet
facet normal -0.0 -0.0 1.0
  outer loop
    vertex 61.99999999999998 15.999999999999988 35.0
    vertex 58.00000000000003 19.99999999999999 35.0
    vertex 58.00000000000003 15.999999999999988 35.0
  endloop
endfacet
facet normal -0.0 -0.0 1.0
  outer loop
    vertex 58.00000000000003 19.99999999999999 35.0
    vertex 61.99999999999998 15.999999999999988 35.0
    vertex 61.99999999999998 19.99999999999999 35.0
  endloop
endfacet
facet normal 1.0 -0.0 -0.0
  outer loop
    vertex 61.99999999999998 19.99999999999999 32.5
    vertex 61.99999999999998 15.999999999999988 35.0
    vertex 61.99999999999998 15.999999999999988 32.5
  endloop
endfacet
facet normal 1.0 -0.0 -0.0
  outer loop
    vertex 61.99999999999998 15.999999999999988 35.0
    vertex 61.99999999999998 19.99999999999999 32.5
    vertex 61.99999999999998 19.99999999999999 35.0
  endloop
endfacet
facet normal 0.0 -1.0 0.0
  outer loop
    vertex 61.99999999999998 8.000000000000028 35.0
    vertex 58.00000000000003 8.000000000000028 32.5
    vertex 61.99999999999998 8.000000000000028 32.5
  endloop
endfacet
facet normal 0.0 -1.0 0.0
  outer loop
    vertex 58.00000000000003 8.000000000000028 32.5
    vertex 61.99999999999998 8.000000000000028 35.0
    vertex 58.00000000000003 8.000000000000028 35.0
  endloop
endfacet
facet normal -0.0 1.0 -0.0
  outer loop
    vertex 50.000000000000036 12.000000000000052 35.0
    vertex 54.00000000000003 12.000000000000052 32.5
    vertex 50.000000000000036 12.000000000000052 32.5
  endloop
endfacet
facet normal -0.0 1.0 -0.0
  outer loop
    vertex 54.00000000000003 12.000000000000052 32.5
    vertex 50.000000000000036 12.000000000000052 35.0
    vertex 54.00000000000003 12.000000000000052 35.0
  endloop
endfacet
facet normal -0.0 -0.0 1.0
  outer loop
    vertex 61.99999999999998 8.000000000000028 35.0
    vertex 58.00000000000003 11.99999999999999 35.0
    vertex 58.00000000000003 8.000000000000028 35.0
  endloop
endfacet
facet normal -0.0 -0.0 1.0
  outer loop
    vertex 58.00000000000003 11.99999999999999 35.0
    vertex 61.99999999999998 8.000000000000028 35.0
    vertex 61.99999999999998 11.99999999999999 35.0
  endloop
endfacet
facet normal 0.0 -1.0 0.0
  outer loop
    vertex 61.99999999999998 15.999999999999988 35.0
    vertex 58.00000000000003 15.999999999999988 32.5
    vertex 61.99999999999998 15.999999999999988 32.5
  endloop
endfacet
facet normal 0.0 -1.0 0.0
  outer loop
    vertex 58.00000000000003 15.999999999999988 32.5
    vertex 61.99999999999998 15.999999999999988 35.0
    vertex 58.00000000000003 15.999999999999988 35.0
  endloop
endfacet
facet normal -1.0 -5.639932965095793e-15 -1.435197976124529e-44
  outer loop
    vertex 65.99999999999997 19.99999999999999 35.0
    vertex 65.99999999999999 15.999999999999988 32.5
    vertex 65.99999999999999 15.999999999999988 35.0
  endloop
endfacet
facet normal -1.0 -5.639932965095793e-15 -1.435197976124529e-44
  outer loop
    vertex 65.99999999999999 15.999999999999988 32.5
    vertex 65.99999999999997 19.99999999999999 35.0
    vertex 65.99999999999997 19.99999999999999 32.5
  endloop
endfacet
facet normal -1.0 0.0 0.0
  outer loop
    vertex 58.00000000000003 4.000000000000029 35.0
    vertex 58.00000000000003 1.6919798895287383e-14 32.5
    vertex 58.00000000000003 1.6919798895287383e-14 35.0
  endloop
endfacet
facet normal -1.0 0.0 0.0
  outer loop
    vertex 58.00000000000003 1.6919798895287383e-14 32.5
    vertex 58.00000000000003 4.000000000000029 35.0
    vertex 58.00000000000003 4.000000000000029 32.5
  endloop
endfacet
facet normal -1.0 0.0 0.0
  outer loop
    vertex 58.00000000000003 11.99999999999999 35.0
    vertex 58.00000000000003 8.000000000000028 32.5
    vertex 58.00000000000003 8.000000000000028 35.0
  endloop
endfacet
facet normal -1.0 0.0 0.0
  outer loop
    vertex 58.00000000000003 8.000000000000028 32.5
    vertex 58.00000000000003 11.99999999999999 35.0
    vertex 58.00000000000003 11.99999999999999 32.5
  endloop
endfacet
facet normal -0.0 -0.0 1.0
  outer loop
    vertex 54.00000000000003 8.00000000000006 35.0
    vertex 50.000000000000036 12.000000000000052 35.0
    vertex 50.000000000000036 8.00000000000006 35.0
  endloop
endfacet
facet normal -0.0 -0.0 1.0
  outer loop
    vertex 50.000000000000036 12.000000000000052 35.0
    vertex 54.00000000000003 8.00000000000006 35.0
    vertex 54.00000000000003 12.000000000000052 35.0
  endloop
endfacet
facet normal 1.0 -0.0 -0.0
  outer loop
    vertex 61.99999999999998 11.99999999999999 32.5
    vertex 61.99999999999998 8.000000000000028 35.0
    vertex 61.99999999999998 8.000000000000028 32.5
  endloop
endfacet
facet normal 1.0 -0.0 -0.0
  outer loop
    vertex 61.99999999999998 8.000000000000028 35.0
    vertex 61.99999999999998 11.99999999999999 32.5
    vertex 61.99999999999998 11.99999999999999 35.0
  endloop
endfacet
facet normal -0.0 1.0 -0.0
  outer loop
    vertex 58.00000000000003 11.99999999999999 35.0
    vertex 61.99999999999998 11.99999999999999 32.5
    vertex 58.00000000000003 11.99999999999999 32.5
  endloop
endfacet
facet normal -0.0 1.0 -0.0
  outer loop
    vertex 61.99999999999998 11.99999999999999 32.5
    vertex 58.00000000000003 11.99999999999999 35.0
    vertex 61.99999999999998 11.99999999999999 35.0
  endloop
endfacet
facet normal 0.0 -1.0 0.0
  outer loop
    vertex 54.00000000000003 16.00000000000005 35.0
    vertex 50.000000000000036 16.00000000000005 32.5
    vertex 54.00000000000003 16.00000000000005 32.5
  endloop
endfacet
facet normal 0.0 -1.0 0.0
  outer loop
    vertex 50.000000000000036 16.00000000000005 32.5
    vertex 54.00000000000003 16.00000000000005 35.0
    vertex 50.000000000000036 16.00000000000005 35.0
  endloop
endfacet
facet normal -0.0 -0.0 1.0
  outer loop
    vertex 54.00000000000003 1.6919798895287383e-14 35.0
    vertex 50.000000000000036 4.00000000000006 35.0
    vertex 50.00000000000003 -1.4099832412739487e-15 35.0
  endloop
endfacet
facet normal -0.0 -0.0 1.0
  outer loop
    vertex 50.000000000000036 4.00000000000006 35.0
    vertex 54.00000000000003 1.6919798895287383e-14 35.0
    vertex 54.00000000000003 4.00000000000006 35.0
  endloop
endfacet
facet normal 0.0 -1.0 0.0
  outer loop
    vertex 54.00000000000003 8.00000000000006 35.0
    vertex 50.000000000000036 8.00000000000006 32.5
    vertex 54.00000000000003 8.00000000000006 32.5
  endloop
endfacet
facet normal 0.0 -1.0 0.0
  outer loop
    vertex 50.000000000000036 8.00000000000006 32.5
    vertex 54.00000000000003 8.00000000000006 35.0
    vertex 50.000000000000036 8.00000000000006 35.0
  endloop
endfacet
facet normal -1.0 0.0 0.0
  outer loop
    vertex 58.00000000000003 19.99999999999999 35.0
    vertex 58.00000000000003 15.999999999999988 32.5
    vertex 58.00000000000003 15.999999999999988 35.0
  endloop
endfacet
facet normal -1.0 0.0 0.0
  outer loop
    vertex 58.00000000000003 15.999999999999988 32.5
    vertex 58.00000000000003 19.99999999999999 35.0
    vertex 58.00000000000003 19.99999999999999 32.5
  endloop
endfacet
facet normal 1.0 -0.0 -0.0
  outer loop
    vertex 54.00000000000003 4.00000000000006 32.5
    vertex 54.00000000000003 1.6919798895287383e-14 35.0
    vertex 54.00000000000003 1.6919798895287383e-14 32.5
  endloop
endfacet
facet normal 1.0 -0.0 -0.0
  outer loop
    vertex 54.00000000000003 1.6919798895287383e-14 35.0
    vertex 54.00000000000003 4.00000000000006 32.5
    vertex 54.00000000000003 4.00000000000006 35.0
  endloop
endfacet
facet normal -0.0 1.0 -0.0
  outer loop
    vertex 58.00000000000003 4.000000000000029 35.0
    vertex 61.99999999999998 4.000000000000029 32.5
    vertex 58.00000000000003 4.000000000000029 32.5
  endloop
endfacet
facet normal -0.0 1.0 -0.0
  outer loop
    vertex 61.99999999999998 4.000000000000029 32.5
    vertex 58.00000000000003 4.000000000000029 35.0
    vertex 61.99999999999998 4.000000000000029 35.0
  endloop
endfacet
facet normal -0.0 -0.0 1.0
  outer loop
    vertex 61.99999999999998 1.4099832412739488e-14 35.0
    vertex 58.00000000000003 4.000000000000029 35.0
    vertex 58.00000000000003 1.6919798895287383e-14 35.0
  endloop
endfacet
facet normal -0.0 -0.0 1.0
  outer loop
    vertex 58.00000000000003 4.000000000000029 35.0
    vertex 61.99999999999998 1.4099832412739488e-14 35.0
    vertex 61.99999999999998 4.000000000000029 35.0
  endloop
endfacet
facet normal 1.0 -0.0 -0.0
  outer loop
    vertex 54.00000000000003 12.000000000000052 32.5
    vertex 54.00000000000003 8.00000000000006 35.0
    vertex 54.00000000000003 8.00000000000006 32.5
  endloop
endfacet
facet normal 1.0 -0.0 -0.0
  outer loop
    vertex 54.00000000000003 8.00000000000006 35.0
    vertex 54.00000000000003 12.000000000000052 32.5
    vertex 54.00000000000003 12.000000000000052 35.0
  endloop
endfacet
facet normal -0.0 1.0 -0.0
  outer loop
    vertex 50.000000000000036 4.00000000000006 35.0
    vertex 54.00000000000003 4.00000000000006 32.5
    vertex 50.000000000000036 4.00000000000006 32.5
  endloop
endfacet
facet normal -0.0 1.0 -0.0
  outer loop
    vertex 54.00000000000003 4.00000000000006 32.5
    vertex 50.000000000000036 4.00000000000006 35.0
    vertex 54.00000000000003 4.00000000000006 35.0
  endloop
endfacet
endsolid Kessler chess set
