solid Kessler chess set
facet normal 0.0 -1.0 0.0
  outer loop
    vertex 144.99999999999997 0.0 5.000000000000002
    vertex 125.0 0.0 -3.1307917175958904e-31
    vertex 144.99999999999997 0.0 -3.1307917175958904e-31
  endloop
endfacet
facet normal 0.0 -1.0 0.0
  outer loop
    vertex 125.0 0.0 -3.1307917175958904e-31
    vertex 144.99999999999997 0.0 5.000000000000002
    vertex 125.0 0.0 5.000000000000002
  endloop
endfacet
facet normal 1.0 -0.0 -0.0
  outer loop
    vertex 144.99999999999997 20.00000000000002 -3.1307917175958904e-31
    vertex 144.99999999999997 0.0 5.000000000000002
    vertex 144.99999999999997 0.0 -3.1307917175958904e-31
  endloop
endfacet
facet normal 1.0 -0.0 -0.0
  outer loop
    vertex 144.99999999999997 0.0 5.000000000000002
    vertex 144.99999999999997 20.00000000000002 -3.1307917175958904e-31
    vertex 144.99999999999997 20.00000000000002 5.000000000000002
  endloop
endfacet
facet normal 0.0 0.0 -1.0
  outer loop
    vertex 144.99999999999997 20.00000000000002 -3.1307917175958904e-31
    vertex 125.0 0.0 -3.1307917175958904e-31
    vertex 125.0 20.00000000000002 -3.1307917175958904e-31
  endloop
endfacet
facet normal 0.0 0.0 -1.0
  outer loop
    vertex 125.0 0.0 -3.1307917175958904e-31
    vertex 144.99999999999997 20.00000000000002 -3.1307917175958904e-31
    vertex 144.99999999999997 0.0 -3.1307917175958904e-31
  endloop
endfacet
facet normal -0.0 -0.0 1.0
  outer loop
    vertex 125.0 0.0 5.000000000000002
    vertex 127.49999999999999 2.500000000000001 5.000000000000002
    vertex 125.0 20.00000000000002 5.000000000000002
  endloop
endfacet
facet normal -0.0 -0.0 1.0
  outer loop
    vertex 127.49999999999999 2.500000000000001 5.000000000000002
    vertex 125.0 0.0 5.000000000000002
    vertex 144.99999999999997 0.0 5.000000000000002
  endloop
endfacet
facet normal -0.0 -0.0 1.0
  outer loop
    vertex 127.49999999999999 2.500000000000001 5.000000000000002
    vertex 144.99999999999997 0.0 5.000000000000002
    vertex 142.49999999999997 2.500000000000001 5.000000000000002
  endloop
endfacet
facet normal -0.0 -0.0 1.0
  outer loop
    vertex 142.49999999999997 2.500000000000001 5.000000000000002
    vertex 144.99999999999997 0.0 5.000000000000002
    vertex 142.49999999999997 17.500000000000018 5.000000000000002
  endloop
endfacet
facet normal -0.0 -0.0 1.0
  outer loop
    vertex 125.0 20.00000000000002 5.000000000000002
    vertex 127.49999999999999 17.500000000000018 5.000000000000002
    vertex 144.99999999999997 20.00000000000002 5.000000000000002
  endloop
endfacet
facet normal -0.0 -0.0 1.0
  outer loop
    vertex 127.49999999999999 17.500000000000018 5.000000000000002
    vertex 125.0 20.00000000000002 5.000000000000002
    vertex 127.49999999999999 2.500000000000001 5.000000000000002
  endloop
endfacet
facet normal -0.0 -0.0 1.0
  outer loop
    vertex 144.99999999999997 20.00000000000002 5.000000000000002
    vertex 127.49999999999999 17.500000000000018 5.000000000000002
    vertex 142.49999999999997 17.500000000000018 5.000000000000002
  endloop
endfacet
facet normal -0.0 -0.0 1.0
  outer loop
    vertex 144.99999999999997 20.00000000000002 5.000000000000002
    vertex 142.49999999999997 17.500000000000018 5.000000000000002
    vertex 144.99999999999997 0.0 5.000000000000002
  endloop
endfacet
facet normal -1.0 0.0 0.0
  outer loop
    vertex 125.00000000000001 20.000000000000007 34.99999999999997
    vertex 125.00000000000001 5.639932965095795e-15 7.5000000000000036
    vertex 125.00000000000001 5.639932965095795e-15 34.99999999999997
  endloop
endfacet
facet normal -1.0 0.0 0.0
  outer loop
    vertex 125.00000000000001 5.639932965095795e-15 7.5000000000000036
    vertex 125.00000000000001 20.000000000000007 34.99999999999997
    vertex 125.00000000000001 20.000000000000007 7.5000000000000036
  endloop
endfacet
facet normal -1.0 0.0 0.0
  outer loop
    vertex 125.0 20.00000000000002 5.000000000000002
    vertex 125.0 0.0 -3.1307917175958904e-31
    vertex 125.0 0.0 5.000000000000002
  endloop
endfacet
facet normal -1.0 0.0 0.0
  outer loop
    vertex 125.0 0.0 -3.1307917175958904e-31
    vertex 125.0 20.00000000000002 5.000000000000002
    vertex 125.0 20.00000000000002 -3.1307917175958904e-31
  endloop
endfacet
facet normal 1.0 -0.0 -0.0
  outer loop
    vertex 144.99999999999997 20.000000000000007 7.5000000000000036
    vertex 144.99999999999997 5.639932965095795e-15 34.99999999999997
    vertex 144.99999999999997 5.639932965095795e-15 7.5000000000000036
  endloop
endfacet
facet normal 1.0 -0.0 -0.0
  outer loop
    vertex 144.99999999999997 5.639932965095795e-15 34.99999999999997
    vertex 144.99999999999997 20.000000000000007 7.5000000000000036
    vertex 144.99999999999997 20.000000000000007 34.99999999999997
  endloop
endfacet
facet normal 0.0 -1.0 0.0
  outer loop
    vertex 144.99999999999997 5.639932965095795e-15 34.99999999999997
    vertex 125.00000000000001 5.639932965095795e-15 7.5000000000000036
    vertex 144.99999999999997 5.639932965095795e-15 7.5000000000000036
  endloop
endfacet
facet normal 0.0 -1.0 0.0
  outer loop
    vertex 125.00000000000001 5.639932965095795e-15 7.5000000000000036
    vertex 144.99999999999997 5.639932965095795e-15 34.99999999999997
    vertex 125.00000000000001 5.639932965095795e-15 34.99999999999997
  endloop
endfacet
facet normal -1.0 0.0 0.0
  outer loop
    vertex 127.49999999999999 17.500000000000018 7.5000000000000036
    vertex 127.49999999999999 2.500000000000001 5.000000000000002
    vertex 127.49999999999999 2.500000000000001 7.5000000000000036
  endloop
endfacet
facet normal -1.0 0.0 0.0
  outer loop
    vertex 127.49999999999999 2.500000000000001 5.000000000000002
    vertex 127.49999999999999 17.500000000000018 7.5000000000000036
    vertex 127.49999999999999 17.500000000000018 5.000000000000002
  endloop
endfacet
facet normal 0.0 -1.0 0.0
  outer loop
    vertex 142.49999999999997 2.500000000000001 7.5000000000000036
    vertex 127.49999999999999 2.500000000000001 5.000000000000002
    vertex 142.49999999999997 2.500000000000001 5.000000000000002
  endloop
endfacet
facet normal 0.0 -1.0 0.0
  outer loop
    vertex 127.49999999999999 2.500000000000001 5.000000000000002
    vertex 142.49999999999997 2.500000000000001 7.5000000000000036
    vertex 127.49999999999999 2.500000000000001 7.5000000000000036
  endloop
endfacet
facet normal 1.0 -0.0 -0.0
  outer loop
    vertex 142.49999999999997 17.500000000000018 5.000000000000002
    vertex 142.49999999999997 2.500000000000001 7.5000000000000036
    vertex 142.49999999999997 2.500000000000001 5.000000000000002
  endloop
endfacet
facet normal 1.0 -0.0 -0.0
  outer loop
    vertex 142.49999999999997 2.500000000000001 7.5000000000000036
    vertex 142.49999999999997 17.500000000000018 5.000000000000002
    vertex 142.49999999999997 17.500000000000018 7.5000000000000036
  endloop
endfacet
facet normal -0.0 1.0 -0.0
  outer loop
    vertex 125.00000000000001 20.000000000000007 34.99999999999997
    vertex 144.99999999999997 20.000000000000007 7.5000000000000036
    vertex 125.00000000000001 20.000000000000007 7.5000000000000036
  endloop
endfacet
facet normal -0.0 1.0 -0.0
  outer loop
    vertex 144.99999999999997 20.000000000000007 7.5000000000000036
    vertex 125.00000000000001 20.000000000000007 34.99999999999997
    vertex 144.99999999999997 20.000000000000007 34.99999999999997
  endloop
endfacet
facet normal -0.0 1.0 -0.0
  outer loop
    vertex 125.0 20.00000000000002 5.000000000000002
    vertex 144.99999999999997 20.00000000000002 -3.1307917175958904e-31
    vertex 125.0 20.00000000000002 -3.1307917175958904e-31
  endloop
endfacet
facet normal -0.0 1.0 -0.0
  outer loop
    vertex 144.99999999999997 20.00000000000002 -3.1307917175958904e-31
    vertex 125.0 20.00000000000002 5.000000000000002
    vertex 144.99999999999997 20.00000000000002 5.000000000000002
  endloop
endfacet
facet normal 0.0 0.0 1.0
  outer loop
    vertex 125.00000000000001 5.639932965095795e-15 34.99999999999997
    vertex 127.50000000000001 2.5000000000000058 34.99999999999997
    vertex 125.00000000000001 20.000000000000007 34.99999999999997
  endloop
endfacet
facet normal 0.0 0.0 1.0
  outer loop
    vertex 127.50000000000001 2.5000000000000058 34.99999999999997
    vertex 125.00000000000001 5.639932965095795e-15 34.99999999999997
    vertex 144.99999999999997 5.639932965095795e-15 34.99999999999997
  endloop
endfacet
facet normal 0.0 0.0 1.0
  outer loop
    vertex 127.50000000000001 2.5000000000000058 34.99999999999997
    vertex 144.99999999999997 5.639932965095795e-15 34.99999999999997
    vertex 142.5 2.5000000000000058 34.99999999999997
  endloop
endfacet
facet normal 0.0 0.0 1.0
  outer loop
    vertex 142.5 2.5000000000000058 34.99999999999997
    vertex 144.99999999999997 5.639932965095795e-15 34.99999999999997
    vertex 142.5 17.500000000000007 34.99999999999997
  endloop
endfacet
facet normal 0.0 0.0 1.0
  outer loop
    vertex 125.00000000000001 20.000000000000007 34.99999999999997
    vertex 127.50000000000001 17.500000000000007 34.99999999999997
    vertex 144.99999999999997 20.000000000000007 34.99999999999997
  endloop
endfacet
facet normal 0.0 0.0 1.0
  outer loop
    vertex 127.50000000000001 17.500000000000007 34.99999999999997
    vertex 125.00000000000001 20.000000000000007 34.99999999999997
    vertex 127.50000000000001 2.5000000000000058 34.99999999999997
  endloop
endfacet
facet normal 0.0 0.0 1.0
  outer loop
    vertex 144.99999999999997 20.000000000000007 34.99999999999997
    vertex 127.50000000000001 17.500000000000007 34.99999999999997
    vertex 142.5 17.500000000000007 34.99999999999997
  endloop
endfacet
facet normal 0.0 0.0 1.0
  outer loop
    vertex 144.99999999999997 20.000000000000007 34.99999999999997
    vertex 142.5 17.500000000000007 34.99999999999997
    vertex 144.99999999999997 5.639932965095795e-15 34.99999999999997
  endloop
endfacet
facet normal 0.0 0.0 -1.0
  outer loop
    vertex 125.00000000000001 20.000000000000007 7.5000000000000036
    vertex 127.49999999999999 17.500000000000018 7.5000000000000036
    vertex 125.00000000000001 5.639932965095795e-15 7.5000000000000036
  endloop
endfacet
facet normal 0.0 0.0 -1.0
  outer loop
    vertex 127.49999999999999 17.500000000000018 7.5000000000000036
    vertex 125.00000000000001 20.000000000000007 7.5000000000000036
    vertex 144.99999999999997 20.000000000000007 7.5000000000000036
  endloop
endfacet
facet normal 0.0 0.0 -1.0
  outer loop
    vertex 127.49999999999999 17.500000000000018 7.5000000000000036
    vertex 144.99999999999997 20.000000000000007 7.5000000000000036
    vertex 142.49999999999997 17.500000000000018 7.5000000000000036
  endloop
endfacet
facet normal 0.0 0.0 -1.0
  outer loop
    vertex 142.49999999999997 17.500000000000018 7.5000000000000036
    vertex 144.99999999999997 20.000000000000007 7.5000000000000036
    vertex 142.49999999999997 2.500000000000001 7.5000000000000036
  endloop
endfacet
facet normal 0.0 0.0 -1.0
  outer loop
    vertex 125.00000000000001 5.639932965095795e-15 7.5000000000000036
    vertex 127.49999999999999 2.500000000000001 7.5000000000000036
    vertex 144.99999999999997 5.639932965095795e-15 7.5000000000000036
  endloop
endfacet
facet normal 0.0 0.0 -1.0
  outer loop
    vertex 127.49999999999999 2.500000000000001 7.5000000000000036
    vertex 125.00000000000001 5.639932965095795e-15 7.5000000000000036
    vertex 127.49999999999999 17.500000000000018 7.5000000000000036
  endloop
endfacet
facet normal 0.0 0.0 -1.0
  outer loop
    vertex 144.99999999999997 5.639932965095795e-15 7.5000000000000036
    vertex 127.49999999999999 2.500000000000001 7.5000000000000036
    vertex 142.49999999999997 2.500000000000001 7.5000000000000036
  endloop
endfacet
facet normal 0.0 0.0 -1.0
  outer loop
    vertex 144.99999999999997 5.639932965095795e-15 7.5000000000000036
    vertex 142.49999999999997 2.500000000000001 7.5000000000000036
    vertex 144.99999999999997 20.000000000000007 7.5000000000000036
  endloop
endfacet
facet normal -0.0 1.0 -0.0
  outer loop
    vertex 127.49999999999999 17.500000000000018 7.5000000000000036
    vertex 142.49999999999997 17.500000000000018 5.000000000000002
    vertex 127.49999999999999 17.500000000000018 5.000000000000002
  endloop
endfacet
facet normal -0.0 1.0 -0.0
  outer loop
    vertex 142.49999999999997 17.500000000000018 5.000000000000002
    vertex 127.49999999999999 17.500000000000018 7.5000000000000036
    vertex 142.49999999999997 17.500000000000018 7.5000000000000036
  endloop
endfacet
facet normal 0.44721359549995865 -0.0 0.8944271909999155
  outer loop
    vertex 135.00000000000003 20.000000000000007 42.49999999999999
    vertex 125.00000000000004 20.000000000000004 47.49999999999999
    vertex 135.00000000000003 10.000000000000004 42.49999999999999
  endloop
endfacet
facet normal 7.013408279600988e-34 -1.0 1.409983241273945e-16
  outer loop
    vertex 142.5 2.5000000000000058 37.49999999999998
    vertex 127.50000000000001 2.5000000000000058 34.99999999999997
    vertex 142.5 2.5000000000000058 34.99999999999997
  endloop
endfacet
facet normal 7.013408279600988e-34 -1.0 1.409983241273945e-16
  outer loop
    vertex 127.50000000000001 2.5000000000000058 34.99999999999997
    vertex 142.5 2.5000000000000058 37.49999999999998
    vertex 127.50000000000001 2.5000000000000058 37.49999999999998
  endloop
endfacet
facet normal -0.0 1.0 -0.0
  outer loop
    vertex 127.50000000000001 17.500000000000007 37.49999999999998
    vertex 142.5 17.500000000000007 34.99999999999997
    vertex 127.50000000000001 17.500000000000007 34.99999999999997
  endloop
endfacet
facet normal -0.0 1.0 -0.0
  outer loop
    vertex 142.5 17.500000000000007 34.99999999999997
    vertex 127.50000000000001 17.500000000000007 37.49999999999998
    vertex 142.5 17.500000000000007 37.49999999999998
  endloop
endfacet
facet normal -0.44721359549995876 4.8436346705006425e-17 0.8944271909999155
  outer loop
    vertex 145.0 20.000000000000007 47.49999999999999
    vertex 135.00000000000003 20.000000000000007 42.49999999999999
    vertex 135.00000000000003 10.000000000000004 42.49999999999999
  endloop
endfacet
facet normal 3.132958452054843e-16 -1.0 8.812395257962155e-16
  outer loop
    vertex 145.00000000000003 2.255973186038318e-14 47.49999999999999
    vertex 125.00000000000004 4.5824455341403335e-15 37.49999999999998
    vertex 144.99999999999997 4.5824455341403335e-15 37.49999999999998
  endloop
endfacet
facet normal 3.132958452054843e-16 -1.0 8.812395257962155e-16
  outer loop
    vertex 125.00000000000004 4.5824455341403335e-15 37.49999999999998
    vertex 145.00000000000003 2.255973186038318e-14 47.49999999999999
    vertex 135.00000000000003 4.318073676401468e-15 42.49999999999999
  endloop
endfacet
facet normal 3.132958452054843e-16 -1.0 8.812395257962155e-16
  outer loop
    vertex 125.00000000000004 4.229949723821846e-15 47.49999999999999
    vertex 125.00000000000004 4.5824455341403335e-15 37.49999999999998
    vertex 135.00000000000003 4.318073676401468e-15 42.49999999999999
  endloop
endfacet
facet normal -1.0 0.0 0.0
  outer loop
    vertex 125.00000000000004 10.000000000000004 42.49999999999999
    vertex 125.00000000000004 4.5824455341403335e-15 37.49999999999998
    vertex 125.00000000000004 4.229949723821846e-15 47.49999999999999
  endloop
endfacet
facet normal -1.0 0.0 0.0
  outer loop
    vertex 125.00000000000004 4.5824455341403335e-15 37.49999999999998
    vertex 125.00000000000004 10.000000000000004 42.49999999999999
    vertex 125.00000000000004 20.000000000000004 37.49999999999998
  endloop
endfacet
facet normal -1.0 0.0 0.0
  outer loop
    vertex 125.00000000000004 20.000000000000004 37.49999999999998
    vertex 125.00000000000004 10.000000000000004 42.49999999999999
    vertex 125.00000000000004 20.000000000000004 47.49999999999999
  endloop
endfacet
facet normal -0.4472135954999578 -0.0 0.8944271909999159
  outer loop
    vertex 145.00000000000003 2.255973186038318e-14 47.49999999999999
    vertex 135.00000000000003 10.000000000000004 42.49999999999999
    vertex 135.00000000000003 4.318073676401468e-15 42.49999999999999
  endloop
endfacet
facet normal -1.0 0.0 0.0
  outer loop
    vertex 127.50000000000001 2.5000000000000058 37.49999999999998
    vertex 127.50000000000001 17.500000000000007 34.99999999999997
    vertex 127.50000000000001 2.5000000000000058 34.99999999999997
  endloop
endfacet
facet normal -1.0 0.0 0.0
  outer loop
    vertex 127.50000000000001 17.500000000000007 34.99999999999997
    vertex 127.50000000000001 2.5000000000000058 37.49999999999998
    vertex 127.50000000000001 17.500000000000007 37.49999999999998
  endloop
endfacet
facet normal -0.0 -0.4472135954999579 0.8944271909999159
  outer loop
    vertex 145.00000000000003 10.000000000000004 42.49999999999999
    vertex 145.0 20.000000000000007 47.49999999999999
    vertex 135.00000000000003 10.000000000000004 42.49999999999999
  endloop
endfacet
facet normal 1.0 8.557139671179832e-16 -3.383959779057474e-15
  outer loop
    vertex 144.99999999999997 20.000000000000004 37.49999999999998
    vertex 145.00000000000003 2.255973186038318e-14 47.49999999999999
    vertex 144.99999999999997 4.5824455341403335e-15 37.49999999999998
  endloop
endfacet
facet normal 1.0 8.557139671179832e-16 -3.383959779057474e-15
  outer loop
    vertex 145.00000000000003 2.255973186038318e-14 47.49999999999999
    vertex 144.99999999999997 20.000000000000004 37.49999999999998
    vertex 145.00000000000003 10.000000000000004 42.49999999999999
  endloop
endfacet
facet normal 1.0 8.557139671179832e-16 -3.383959779057474e-15
  outer loop
    vertex 145.00000000000003 10.000000000000004 42.49999999999999
    vertex 144.99999999999997 20.000000000000004 37.49999999999998
    vertex 145.0 20.000000000000007 47.49999999999999
  endloop
endfacet
facet normal -7.779217882890786e-17 1.0 -2.8199664825478927e-16
  outer loop
    vertex 125.00000000000004 20.000000000000004 47.49999999999999
    vertex 144.99999999999997 20.000000000000004 37.49999999999998
    vertex 125.00000000000004 20.000000000000004 37.49999999999998
  endloop
endfacet
facet normal -7.779217882890786e-17 1.0 -2.8199664825478927e-16
  outer loop
    vertex 144.99999999999997 20.000000000000004 37.49999999999998
    vertex 125.00000000000004 20.000000000000004 47.49999999999999
    vertex 135.00000000000003 20.000000000000007 42.49999999999999
  endloop
endfacet
facet normal -7.779217882890786e-17 1.0 -2.8199664825478927e-16
  outer loop
    vertex 145.0 20.000000000000007 47.49999999999999
    vertex 144.99999999999997 20.000000000000004 37.49999999999998
    vertex 135.00000000000003 20.000000000000007 42.49999999999999
  endloop
endfacet
facet normal 1.453090401150192e-16 0.4472135954999589 0.8944271909999155
  outer loop
    vertex 145.00000000000003 10.000000000000004 42.49999999999999
    vertex 135.00000000000003 10.000000000000004 42.49999999999999
    vertex 145.00000000000003 2.255973186038318e-14 47.49999999999999
  endloop
endfacet
facet normal 0.0 0.0 -1.0
  outer loop
    vertex 125.00000000000004 20.000000000000004 37.49999999999998
    vertex 127.50000000000001 17.500000000000007 37.49999999999998
    vertex 125.00000000000004 4.5824455341403335e-15 37.49999999999998
  endloop
endfacet
facet normal 0.0 0.0 -1.0
  outer loop
    vertex 127.50000000000001 17.500000000000007 37.49999999999998
    vertex 125.00000000000004 20.000000000000004 37.49999999999998
    vertex 144.99999999999997 20.000000000000004 37.49999999999998
  endloop
endfacet
facet normal 0.0 0.0 -1.0
  outer loop
    vertex 127.50000000000001 17.500000000000007 37.49999999999998
    vertex 144.99999999999997 20.000000000000004 37.49999999999998
    vertex 142.5 17.500000000000007 37.49999999999998
  endloop
endfacet
facet normal 0.0 0.0 -1.0
  outer loop
    vertex 142.5 17.500000000000007 37.49999999999998
    vertex 144.99999999999997 20.000000000000004 37.49999999999998
    vertex 142.5 2.5000000000000058 37.49999999999998
  endloop
endfacet
facet normal 0.0 0.0 -1.0
  outer loop
    vertex 125.00000000000004 4.5824455341403335e-15 37.49999999999998
    vertex 127.50000000000001 2.5000000000000058 37.49999999999998
    vertex 144.99999999999997 4.5824455341403335e-15 37.49999999999998
  endloop
endfacet
facet normal 0.0 0.0 -1.0
  outer loop
    vertex 127.50000000000001 2.5000000000000058 37.49999999999998
    vertex 125.00000000000004 4.5824455341403335e-15 37.49999999999998
    vertex 127.50000000000001 17.500000000000007 37.49999999999998
  endloop
endfacet
facet normal 0.0 0.0 -1.0
  outer loop
    vertex 144.99999999999997 4.5824455341403335e-15 37.49999999999998
    vertex 127.50000000000001 2.5000000000000058 37.49999999999998
    vertex 142.5 2.5000000000000058 37.49999999999998
  endloop
endfacet
facet normal 0.0 0.0 -1.0
  outer loop
    vertex 144.99999999999997 4.5824455341403335e-15 37.49999999999998
    vertex 142.5 2.5000000000000058 37.49999999999998
    vertex 144.99999999999997 20.000000000000004 37.49999999999998
  endloop
endfacet
facet normal 1.0 -0.0 -0.0
  outer loop
    vertex 142.5 17.500000000000007 34.99999999999997
    vertex 142.5 2.5000000000000058 37.49999999999998
    vertex 142.5 2.5000000000000058 34.99999999999997
  endloop
endfacet
facet normal 1.0 -0.0 -0.0
  outer loop
    vertex 142.5 2.5000000000000058 37.49999999999998
    vertex 142.5 17.500000000000007 34.99999999999997
    vertex 142.5 17.500000000000007 37.49999999999998
  endloop
endfacet
facet normal 0.44721359549995876 4.843634670500646e-17 0.8944271909999155
  outer loop
    vertex 135.00000000000003 10.000000000000004 42.49999999999999
    vertex 125.00000000000004 4.229949723821846e-15 47.49999999999999
    vertex 135.00000000000003 4.318073676401468e-15 42.49999999999999
  endloop
endfacet
facet normal 4.843634670500649e-17 0.44721359549995826 0.8944271909999159
  outer loop
    vertex 135.00000000000003 10.000000000000004 42.49999999999999
    vertex 125.00000000000004 10.000000000000004 42.49999999999999
    vertex 125.00000000000004 4.229949723821846e-15 47.49999999999999
  endloop
endfacet
facet normal -0.0 -0.44721359549995826 0.8944271909999159
  outer loop
    vertex 135.00000000000003 10.000000000000004 42.49999999999999
    vertex 125.00000000000004 20.000000000000004 47.49999999999999
    vertex 125.00000000000004 10.000000000000004 42.49999999999999
  endloop
endfacet
endsolid Kessler chess set
